<svg width="93" height="29" viewBox="0 0 93 29" fill="none" xmlns="http://www.w3.org/2000/svg">
<g opacity="0.5" filter="url(#filter0_d_39_1404)">
<path d="M13.9289 3.75C15.1289 3.75 16.1489 3.89 16.9889 4.17C17.8489 4.43 18.5489 4.81 19.0889 5.31C19.6489 5.79 20.0589 6.37 20.3189 7.05C20.5789 7.73 20.7089 8.48 20.7089 9.3C20.7089 10.48 20.4589 11.43 19.9589 12.15C19.4789 12.87 18.7589 13.42 17.7989 13.8C18.7589 14.2 19.4989 14.78 20.0189 15.54C20.5389 16.28 20.7989 17.24 20.7989 18.42C20.7989 19.24 20.6689 19.99 20.4089 20.67C20.1489 21.35 19.7389 21.94 19.1789 22.44C18.6389 22.92 17.9389 23.3 17.0789 23.58C16.2389 23.86 15.2189 24 14.0189 24H5.01891C3.89891 24 3.33891 23.45 3.33891 22.35V5.4C3.33891 4.3 3.89891 3.75 5.01891 3.75H13.9289ZM6.81891 20.16C6.81891 20.38 6.94891 20.49 7.20891 20.49H14.1089C15.1889 20.49 15.9789 20.26 16.4789 19.8C16.9789 19.34 17.2289 18.69 17.2289 17.85C17.2289 16.11 16.1889 15.24 14.1089 15.24H6.81891V20.16ZM6.81891 12.3H14.0189C16.0989 12.3 17.1389 11.49 17.1389 9.87C17.1389 9.07 16.8889 8.43 16.3889 7.95C15.9089 7.47 15.1289 7.23 14.0489 7.23H7.20891C6.94891 7.23 6.81891 7.35 6.81891 7.59V12.3ZM36.0614 3.75C39.0214 3.75 41.2814 4.59 42.8414 6.27C44.4214 7.95 45.2114 10.5 45.2114 13.92C45.2114 17.32 44.4214 19.85 42.8414 21.51C41.2814 23.17 39.0214 24 36.0614 24H33.3014C30.3414 24 28.0714 23.17 26.4914 21.51C24.9314 19.85 24.1514 17.32 24.1514 13.92C24.1514 10.5 24.9314 7.95 26.4914 6.27C28.0714 4.59 30.3414 3.75 33.3014 3.75H36.0614ZM33.3014 7.29C31.3414 7.29 29.9114 7.81 29.0114 8.85C28.1314 9.89 27.6914 11.58 27.6914 13.92C27.6914 16.24 28.1314 17.91 29.0114 18.93C29.8914 19.95 31.3214 20.46 33.3014 20.46H36.0614C38.0014 20.46 39.4114 19.95 40.2914 18.93C41.1914 17.89 41.6414 16.21 41.6414 13.89C41.6414 11.57 41.2014 9.89 40.3214 8.85C39.4414 7.81 38.0214 7.29 36.0614 7.29H33.3014ZM65.0236 3.75V7.29H54.6436C53.7236 7.29 53.0536 7.52 52.6336 7.98C52.2136 8.42 52.0036 8.99 52.0036 9.69C52.0036 9.99 52.0436 10.29 52.1236 10.59C52.2236 10.87 52.3836 11.13 52.6036 11.37C52.8436 11.59 53.1536 11.77 53.5336 11.91C53.9136 12.03 54.4036 12.09 55.0036 12.09H59.7436C61.1236 12.09 62.2536 12.27 63.1336 12.63C64.0136 12.97 64.7036 13.42 65.2036 13.98C65.7236 14.54 66.0736 15.18 66.2536 15.9C66.4536 16.62 66.5536 17.34 66.5536 18.06C66.5536 18.92 66.4336 19.71 66.1936 20.43C65.9536 21.15 65.5736 21.78 65.0536 22.32C64.5336 22.84 63.8636 23.25 63.0436 23.55C62.2436 23.85 61.2636 24 60.1036 24H48.8236V20.46H60.2236C61.1836 20.46 61.8836 20.23 62.3236 19.77C62.7836 19.29 63.0136 18.68 63.0136 17.94C63.0136 17.62 62.9636 17.31 62.8636 17.01C62.7636 16.69 62.5936 16.42 62.3536 16.2C62.1136 15.96 61.7836 15.77 61.3636 15.63C60.9636 15.49 60.4536 15.42 59.8336 15.42H55.1236C53.7636 15.42 52.6536 15.25 51.7936 14.91C50.9336 14.57 50.2536 14.12 49.7536 13.56C49.2736 13 48.9336 12.37 48.7336 11.67C48.5536 10.97 48.4636 10.27 48.4636 9.57C48.4636 8.73 48.5736 7.96 48.7936 7.26C49.0336 6.54 49.4036 5.92 49.9036 5.4C50.4236 4.88 51.0836 4.48 51.8836 4.2C52.6836 3.9 53.6436 3.75 54.7636 3.75H65.0236ZM86.1173 3.75V7.29H75.7373C74.8173 7.29 74.1473 7.52 73.7273 7.98C73.3073 8.42 73.0973 8.99 73.0973 9.69C73.0973 9.99 73.1373 10.29 73.2173 10.59C73.3173 10.87 73.4773 11.13 73.6973 11.37C73.9373 11.59 74.2473 11.77 74.6273 11.91C75.0073 12.03 75.4973 12.09 76.0973 12.09H80.8373C82.2173 12.09 83.3473 12.27 84.2273 12.63C85.1073 12.97 85.7973 13.42 86.2973 13.98C86.8173 14.54 87.1673 15.18 87.3473 15.9C87.5473 16.62 87.6473 17.34 87.6473 18.06C87.6473 18.92 87.5273 19.71 87.2873 20.43C87.0473 21.15 86.6673 21.78 86.1473 22.32C85.6273 22.84 84.9573 23.25 84.1373 23.55C83.3373 23.85 82.3573 24 81.1973 24H69.9173V20.46H81.3173C82.2773 20.46 82.9773 20.23 83.4173 19.77C83.8773 19.29 84.1073 18.68 84.1073 17.94C84.1073 17.62 84.0573 17.31 83.9573 17.01C83.8573 16.69 83.6873 16.42 83.4473 16.2C83.2073 15.96 82.8773 15.77 82.4573 15.63C82.0573 15.49 81.5473 15.42 80.9273 15.42H76.2173C74.8573 15.42 73.7473 15.25 72.8873 14.91C72.0273 14.57 71.3473 14.12 70.8473 13.56C70.3673 13 70.0273 12.37 69.8273 11.67C69.6473 10.97 69.5573 10.27 69.5573 9.57C69.5573 8.73 69.6673 7.96 69.8873 7.26C70.1273 6.54 70.4973 5.92 70.9973 5.4C71.5173 4.88 72.1773 4.48 72.9773 4.2C73.7773 3.9 74.7373 3.75 75.8573 3.75H86.1173Z" fill="url(#paint0_linear_39_1404)"/>
</g>
<defs>
<filter id="filter0_d_39_1404" x="0.338867" y="0.75" width="92.3086" height="28.25" filterUnits="userSpaceOnUse" color-interpolation-filters="sRGB">
<feFlood flood-opacity="0" result="BackgroundImageFix"/>
<feColorMatrix in="SourceAlpha" type="matrix" values="0 0 0 0 0 0 0 0 0 0 0 0 0 0 0 0 0 0 127 0" result="hardAlpha"/>
<feOffset dx="1" dy="1"/>
<feGaussianBlur stdDeviation="2"/>
<feComposite in2="hardAlpha" operator="out"/>
<feColorMatrix type="matrix" values="0 0 0 0 0 0 0 0 0 0 0 0 0 0 0 0 0 0 0.25 0"/>
<feBlend mode="normal" in2="BackgroundImageFix" result="effect1_dropShadow_39_1404"/>
<feBlend mode="normal" in="SourceGraphic" in2="effect1_dropShadow_39_1404" result="shape"/>
</filter>
<linearGradient id="paint0_linear_39_1404" x1="86.7408" y1="25.9231" x2="13.6606" y2="57.3005" gradientUnits="userSpaceOnUse">
<stop stop-color="#373839"/>
<stop offset="1" stop-color="#E84949"/>
</linearGradient>
</defs>
</svg>
