<svg width="145" height="30" viewBox="0 0 145 30" fill="none" xmlns="http://www.w3.org/2000/svg">
<g filter="url(#filter0_d_39_1403)">
<path d="M7.37051 24H3.59051L9.86051 7.14C10.2605 5.98 10.8105 5.07 11.5105 4.41C12.2305 3.73 13.2705 3.39 14.6305 3.39C16.1305 3.39 17.2505 3.8 17.9905 4.62C18.7505 5.42 19.1305 6.48 19.1305 7.8V19.77C19.1305 20.11 19.2205 20.39 19.4005 20.61C19.6005 20.81 19.8505 20.91 20.1505 20.91C20.7105 20.91 21.0905 20.63 21.2905 20.07L26.2105 7.14C26.6105 5.98 27.1605 5.07 27.8605 4.41C28.5805 3.73 29.6205 3.39 30.9805 3.39C32.4805 3.39 33.6005 3.8 34.3405 4.62C35.1005 5.42 35.4805 6.48 35.4805 7.8V24H31.9105V7.98C31.9105 7.62 31.8105 7.34 31.6105 7.14C31.4305 6.92 31.1905 6.81 30.8905 6.81C30.6305 6.81 30.4005 6.89 30.2005 7.05C30.0205 7.21 29.8805 7.42 29.7805 7.68L24.8605 20.61C24.4605 21.77 23.9005 22.69 23.1805 23.37C22.4605 24.03 21.4205 24.36 20.0605 24.36C18.5605 24.36 17.4405 23.96 16.7005 23.16C15.9605 22.34 15.5905 21.26 15.5905 19.92V7.98C15.5905 7.62 15.4905 7.34 15.2905 7.14C15.0905 6.92 14.8405 6.81 14.5405 6.81C14.2605 6.81 14.0305 6.89 13.8505 7.05C13.6705 7.21 13.5305 7.42 13.4305 7.68L7.37051 24ZM42.3831 24H38.4831L45.5931 6C45.9731 5.04 46.5031 4.37 47.1831 3.99C47.8831 3.59 48.7731 3.39 49.8531 3.39C50.9131 3.39 51.7831 3.59 52.4631 3.99C53.1631 4.37 53.6931 5.04 54.0531 6L60.8931 24H56.9631L50.8131 7.71C50.6331 7.25 50.3031 7.02 49.8231 7.02C49.3431 7.02 49.0031 7.25 48.8031 7.71L42.3831 24ZM79.5285 3.75V7.29H69.1485C68.2285 7.29 67.5585 7.52 67.1385 7.98C66.7185 8.42 66.5085 8.99 66.5085 9.69C66.5085 9.99 66.5485 10.29 66.6285 10.59C66.7285 10.87 66.8885 11.13 67.1085 11.37C67.3485 11.59 67.6585 11.77 68.0385 11.91C68.4185 12.03 68.9085 12.09 69.5085 12.09H74.2485C75.6285 12.09 76.7585 12.27 77.6385 12.63C78.5185 12.97 79.2085 13.42 79.7085 13.98C80.2285 14.54 80.5785 15.18 80.7585 15.9C80.9585 16.62 81.0585 17.34 81.0585 18.06C81.0585 18.92 80.9385 19.71 80.6985 20.43C80.4585 21.15 80.0785 21.78 79.5585 22.32C79.0385 22.84 78.3685 23.25 77.5485 23.55C76.7485 23.85 75.7685 24 74.6085 24H63.3285V20.46H74.7285C75.6885 20.46 76.3885 20.23 76.8285 19.77C77.2885 19.29 77.5185 18.68 77.5185 17.94C77.5185 17.62 77.4685 17.31 77.3685 17.01C77.2685 16.69 77.0985 16.42 76.8585 16.2C76.6185 15.96 76.2885 15.77 75.8685 15.63C75.4685 15.49 74.9585 15.42 74.3385 15.42H69.6285C68.2685 15.42 67.1585 15.25 66.2985 14.91C65.4385 14.57 64.7585 14.12 64.2585 13.56C63.7785 13 63.4385 12.37 63.2385 11.67C63.0585 10.97 62.9685 10.27 62.9685 9.57C62.9685 8.73 63.0785 7.96 63.2985 7.26C63.5385 6.54 63.9085 5.92 64.4085 5.4C64.9285 4.88 65.5885 4.48 66.3885 4.2C67.1885 3.9 68.1485 3.75 69.2685 3.75H79.5285ZM97.884 3.75V7.29H91.974V24H88.404V7.29H82.494V3.75H97.884ZM117.393 3.75V7.29H107.253C106.173 7.29 105.393 7.52 104.913 7.98C104.433 8.44 104.193 9.06 104.193 9.84C104.193 11.44 105.223 12.24 107.283 12.24H117.243V15.45H107.193C105.133 15.45 104.103 16.27 104.103 17.91C104.103 18.71 104.353 19.34 104.853 19.8C105.353 20.24 106.123 20.46 107.163 20.46H117.423V24H107.163C105.963 24 104.933 23.86 104.073 23.58C103.233 23.3 102.533 22.92 101.973 22.44C101.433 21.94 101.033 21.35 100.773 20.67C100.533 19.99 100.413 19.26 100.413 18.48C100.413 17.32 100.663 16.36 101.163 15.6C101.663 14.82 102.383 14.23 103.323 13.83C101.423 13.05 100.473 11.53 100.473 9.27C100.473 8.47 100.603 7.73 100.863 7.05C101.123 6.37 101.523 5.79 102.063 5.31C102.623 4.81 103.323 4.43 104.163 4.17C105.023 3.89 106.053 3.75 107.253 3.75H117.393ZM132.943 3.75C134.083 3.75 135.063 3.92 135.883 4.26C136.703 4.58 137.373 5.02 137.893 5.58C138.433 6.12 138.823 6.76 139.063 7.5C139.323 8.24 139.453 9.01 139.453 9.81C139.453 10.45 139.373 11.09 139.213 11.73C139.053 12.35 138.803 12.94 138.463 13.5C138.123 14.04 137.683 14.52 137.143 14.94C136.603 15.36 135.943 15.68 135.163 15.9L139.873 24H135.943L131.323 16.17H126.043C125.703 16.17 125.533 16.34 125.533 16.68V24H121.993V15.99C121.993 14.85 122.243 14.03 122.743 13.53C123.243 13.03 124.053 12.78 125.173 12.78H133.063C133.563 12.78 133.993 12.7 134.353 12.54C134.713 12.38 135.003 12.17 135.223 11.91C135.443 11.65 135.603 11.35 135.703 11.01C135.823 10.67 135.883 10.32 135.883 9.96C135.883 9.24 135.653 8.62 135.193 8.1C134.753 7.56 134.043 7.29 133.063 7.29H121.963V3.75H132.943Z" fill="url(#paint0_linear_39_1403)"/>
</g>
<defs>
<filter id="filter0_d_39_1403" x="0.59082" y="0.390137" width="144.282" height="28.9697" filterUnits="userSpaceOnUse" color-interpolation-filters="sRGB">
<feFlood flood-opacity="0" result="BackgroundImageFix"/>
<feColorMatrix in="SourceAlpha" type="matrix" values="0 0 0 0 0 0 0 0 0 0 0 0 0 0 0 0 0 0 127 0" result="hardAlpha"/>
<feOffset dx="1" dy="1"/>
<feGaussianBlur stdDeviation="2"/>
<feComposite in2="hardAlpha" operator="out"/>
<feColorMatrix type="matrix" values="0 0 0 0 0 0 0 0 0 0 0 0 0 0 0 0 0 0 0.25 0"/>
<feBlend mode="normal" in2="BackgroundImageFix" result="effect1_dropShadow_39_1403"/>
<feBlend mode="normal" in="SourceGraphic" in2="effect1_dropShadow_39_1403" result="shape"/>
</filter>
<linearGradient id="paint0_linear_39_1403" x1="113.054" y1="36" x2="-7.60992" y2="23.2484" gradientUnits="userSpaceOnUse">
<stop stop-color="#373839"/>
<stop offset="0.620281" stop-color="#398CBF"/>
</linearGradient>
</defs>
</svg>
