<svg width="90" height="29" viewBox="0 0 90 29" fill="none" xmlns="http://www.w3.org/2000/svg">
<g filter="url(#filter0_d_39_1405)">
<path d="M19.6955 3.75V7.29H9.31547C8.39547 7.29 7.72547 7.52 7.30547 7.98C6.88547 8.42 6.67547 8.99 6.67547 9.69C6.67547 9.99 6.71547 10.29 6.79547 10.59C6.89547 10.87 7.05547 11.13 7.27547 11.37C7.51547 11.59 7.82547 11.77 8.20547 11.91C8.58547 12.03 9.07547 12.09 9.67547 12.09H14.4155C15.7955 12.09 16.9255 12.27 17.8055 12.63C18.6855 12.97 19.3755 13.42 19.8755 13.98C20.3955 14.54 20.7455 15.18 20.9255 15.9C21.1255 16.62 21.2255 17.34 21.2255 18.06C21.2255 18.92 21.1055 19.71 20.8655 20.43C20.6255 21.15 20.2455 21.78 19.7255 22.32C19.2055 22.84 18.5355 23.25 17.7155 23.55C16.9155 23.85 15.9355 24 14.7755 24H3.49547V20.46H14.8955C15.8555 20.46 16.5555 20.23 16.9955 19.77C17.4555 19.29 17.6855 18.68 17.6855 17.94C17.6855 17.62 17.6355 17.31 17.5355 17.01C17.4355 16.69 17.2655 16.42 17.0255 16.2C16.7855 15.96 16.4555 15.77 16.0355 15.63C15.6355 15.49 15.1255 15.42 14.5055 15.42H9.79547C8.43547 15.42 7.32547 15.25 6.46547 14.91C5.60547 14.57 4.92547 14.12 4.42547 13.56C3.94547 13 3.60547 12.37 3.40547 11.67C3.22547 10.97 3.13547 10.27 3.13547 9.57C3.13547 8.73 3.24547 7.96 3.46547 7.26C3.70547 6.54 4.07547 5.92 4.57547 5.4C5.09547 4.88 5.75547 4.48 6.55547 4.2C7.35547 3.9 8.31547 3.75 9.43547 3.75H19.6955ZM28.6092 3.75V17.28C28.6092 18.3 28.8692 19.09 29.3892 19.65C29.9292 20.19 30.7892 20.46 31.9692 20.46H35.5692C36.7092 20.46 37.5492 20.19 38.0892 19.65C38.6292 19.09 38.8992 18.3 38.8992 17.28V3.75H42.3792V17.55C42.3792 19.69 41.8292 21.3 40.7292 22.38C39.6292 23.46 37.9892 24 35.8092 24H31.5492C27.1892 24 25.0092 21.85 25.0092 17.55V3.75H28.6092ZM57.4519 3.75C58.5919 3.75 59.5719 3.92 60.3919 4.26C61.2119 4.58 61.8819 5.02 62.4019 5.58C62.9419 6.12 63.3319 6.76 63.5719 7.5C63.8319 8.24 63.9619 9.01 63.9619 9.81C63.9619 10.57 63.8419 11.33 63.6019 12.09C63.3819 12.85 63.0119 13.53 62.4919 14.13C61.9719 14.73 61.2919 15.22 60.4519 15.6C59.6319 15.98 58.6319 16.17 57.4519 16.17H51.1519C50.8119 16.17 50.6419 16.34 50.6419 16.68V24H47.1019V15.99C47.1019 14.85 47.3519 14.03 47.8519 13.53C48.3519 13.03 49.1619 12.78 50.2819 12.78H57.5719C58.0719 12.78 58.5019 12.7 58.8619 12.54C59.2219 12.38 59.5119 12.17 59.7319 11.91C59.9519 11.65 60.1119 11.36 60.2119 11.04C60.3319 10.7 60.3919 10.35 60.3919 9.99C60.3919 9.25 60.1619 8.62 59.7019 8.1C59.2619 7.56 58.5619 7.29 57.6019 7.29H47.0719V3.75H57.4519ZM77.8132 3.75C78.9532 3.75 79.9332 3.92 80.7532 4.26C81.5732 4.58 82.2432 5.02 82.7632 5.58C83.3032 6.12 83.6932 6.76 83.9332 7.5C84.1932 8.24 84.3232 9.01 84.3232 9.81C84.3232 10.57 84.2032 11.33 83.9632 12.09C83.7432 12.85 83.3732 13.53 82.8532 14.13C82.3332 14.73 81.6532 15.22 80.8132 15.6C79.9932 15.98 78.9932 16.17 77.8132 16.17H71.5132C71.1732 16.17 71.0032 16.34 71.0032 16.68V24H67.4632V15.99C67.4632 14.85 67.7132 14.03 68.2132 13.53C68.7132 13.03 69.5232 12.78 70.6432 12.78H77.9332C78.4332 12.78 78.8632 12.7 79.2232 12.54C79.5832 12.38 79.8732 12.17 80.0932 11.91C80.3132 11.65 80.4732 11.36 80.5732 11.04C80.6932 10.7 80.7532 10.35 80.7532 9.99C80.7532 9.25 80.5232 8.62 80.0632 8.1C79.6232 7.56 78.9232 7.29 77.9632 7.29H67.4332V3.75H77.8132Z" fill="url(#paint0_linear_39_1405)"/>
</g>
<defs>
<filter id="filter0_d_39_1405" x="0.135742" y="0.75" width="89.1875" height="28.25" filterUnits="userSpaceOnUse" color-interpolation-filters="sRGB">
<feFlood flood-opacity="0" result="BackgroundImageFix"/>
<feColorMatrix in="SourceAlpha" type="matrix" values="0 0 0 0 0 0 0 0 0 0 0 0 0 0 0 0 0 0 127 0" result="hardAlpha"/>
<feOffset dx="1" dy="1"/>
<feGaussianBlur stdDeviation="2"/>
<feComposite in2="hardAlpha" operator="out"/>
<feColorMatrix type="matrix" values="0 0 0 0 0 0 0 0 0 0 0 0 0 0 0 0 0 0 0.25 0"/>
<feBlend mode="normal" in2="BackgroundImageFix" result="effect1_dropShadow_39_1405"/>
<feBlend mode="normal" in="SourceGraphic" in2="effect1_dropShadow_39_1405" result="shape"/>
</filter>
<linearGradient id="paint0_linear_39_1405" x1="153.572" y1="41.7812" x2="36.4997" y2="92.4944" gradientUnits="userSpaceOnUse">
<stop stop-color="white"/>
<stop offset="0.990865" stop-color="#4439BF"/>
<stop offset="1" stop-color="#4439BF"/>
</linearGradient>
</defs>
</svg>
