<svg width="322" height="176" viewBox="0 0 322 176" fill="none" xmlns="http://www.w3.org/2000/svg">
<path fill-rule="evenodd" clip-rule="evenodd" d="M83.7897 69.3867C84.1402 69.3867 84.4243 69.6708 84.4243 70.0213C84.4243 70.3593 84.1601 70.6356 83.827 70.6549L83.7897 70.6559H60.7533C45.0167 70.6559 32.2213 83.294 31.9669 98.9702L31.9631 99.4461V174.584C31.9631 174.935 31.6789 175.219 31.3285 175.219C30.9905 175.219 30.7142 174.955 30.6949 174.621L30.6938 174.584V99.4461C30.6938 83.0156 43.8888 69.6563 60.2563 69.3907L60.7533 69.3867H83.7897Z" fill="#398CBF"/>
<path fill-rule="evenodd" clip-rule="evenodd" d="M116.711 108.247C117.155 108.099 117.634 108.338 117.782 108.781L117.91 109.169L118.111 109.794C118.154 109.928 118.198 110.066 118.243 110.21C118.587 111.303 118.932 112.447 119.254 113.586C119.399 114.101 119.537 114.604 119.665 115.092L119.741 115.383C120.247 117.332 120.581 118.948 120.699 120.135C120.745 120.6 120.405 121.015 119.94 121.061C119.475 121.107 119.061 120.767 119.015 120.302C118.911 119.251 118.606 117.764 118.143 115.963L118.103 115.808C117.957 115.242 117.796 114.653 117.625 114.047C117.348 113.065 117.053 112.079 116.756 111.125L116.629 110.718C116.554 110.483 116.484 110.26 116.417 110.052L116.177 109.318C116.029 108.875 116.268 108.395 116.711 108.247Z" fill="#398CBF"/>
<path fill-rule="evenodd" clip-rule="evenodd" d="M147.935 105.476C148.387 105.503 148.736 105.88 148.731 106.328L148.711 106.743C148.698 107.016 148.685 107.328 148.673 107.676L148.668 107.809C148.536 111.712 148.589 116.119 148.961 120.443C149.001 120.908 148.656 121.318 148.19 121.358C147.725 121.398 147.315 121.053 147.275 120.587C146.908 116.321 146.846 111.987 146.965 108.113L146.986 107.485C146.994 107.269 147.002 107.067 147.01 106.88L147.04 106.271C147.067 105.819 147.445 105.47 147.893 105.475L147.935 105.476Z" fill="#398CBF"/>
<path fill-rule="evenodd" clip-rule="evenodd" d="M171.092 81.9843C171.342 81.7394 171.744 81.7442 171.989 81.9949C172.131 82.1398 172.225 82.3251 172.314 82.58L172.346 82.6737C172.409 82.8683 172.473 83.1075 172.547 83.423L172.637 83.8255C172.72 84.2043 172.887 84.9868 172.926 85.1634C173.244 86.6194 173.535 87.7361 173.913 88.8384C175.303 92.8887 177.396 95.1193 180.642 95.0672C180.993 95.0616 181.281 95.3411 181.287 95.6915C181.292 96.042 181.013 96.3306 180.662 96.3362C176.735 96.3992 174.26 93.7609 172.713 89.2503C172.332 88.1413 172.039 87.0307 171.726 85.6203L171.365 83.9514L171.313 83.7238C171.236 83.3922 171.174 83.1622 171.117 83.0015C171.1 82.9523 171.084 82.9126 171.07 82.883L171.061 82.8627C171.057 82.8555 171.061 82.861 171.081 82.8818C170.836 82.631 170.841 82.2292 171.092 81.9843Z" fill="#398CBF"/>
<path fill-rule="evenodd" clip-rule="evenodd" d="M86.0315 86.2881C82.5623 87.8112 77.57 90.7938 73.5508 96.9496C79.22 94.6227 98.7025 112.053 112.516 108.098C106.106 107.421 92.3353 97.3092 86.0315 86.2881Z" fill="#398CBF"/>
<path fill-rule="evenodd" clip-rule="evenodd" d="M97.0129 57.8976C97.3294 57.7471 97.708 57.8817 97.8585 58.1982C98.009 58.5148 97.8744 58.8934 97.5578 59.0438C89.7724 62.7451 85.3041 67.2856 83.8229 72.4588C82.5263 76.9876 83.54 81.9735 86.5374 87.1103C86.7627 87.4964 86.5288 87.9882 86.0871 88.0572C84.317 88.3333 81.7387 89.8475 78.2675 93.0501L77.9895 93.3085C73.4261 97.5794 67.7821 104.336 60.9534 113.985C49.7246 129.833 44.892 144.57 47.6364 155.333C50.596 166.939 62.1875 173.58 82.3406 173.928C82.6911 173.934 82.9702 174.223 82.9642 174.573C82.9581 174.924 82.6692 175.203 82.3187 175.197C61.6518 174.84 49.53 167.895 46.4066 155.646C43.5513 144.449 48.495 129.373 59.9176 113.252L60.337 112.661C67.0942 103.163 72.6999 96.4907 77.2659 92.2477L77.4068 92.1173C80.5118 89.2526 82.9938 87.642 84.9361 87.0311L85.0196 87.0052L84.9831 86.9388C82.2104 81.8601 81.2893 76.8708 82.5614 72.2565L82.6027 72.1094C84.195 66.5482 88.9234 61.7434 97.0129 57.8976Z" fill="#398CBF"/>
<path fill-rule="evenodd" clip-rule="evenodd" d="M187.625 35.6485C187.93 35.3903 188.391 35.4759 188.586 35.8175L188.608 35.8596L188.733 36.1095C188.834 36.3073 188.955 36.5446 189.099 36.8222L189.376 37.3526C189.81 38.1808 190.336 39.1651 190.959 40.3092C191.055 40.4817 191.147 40.5315 191.55 40.6088L191.602 40.6186C192.444 40.775 192.826 40.8978 193.388 41.3052C194.131 41.8435 194.796 42.741 195.424 44.1197L195.44 44.1589L195.454 44.1992L208.717 88.0931L208.727 88.1292L208.848 88.6369C210.357 95.0256 211.14 99.8363 211.237 104.249L211.24 104.423C211.341 110.063 210.239 114.687 207.672 118.408C201.771 126.964 188.259 130.439 164.97 128.32L164.653 128.291L164.632 128.303C164.55 128.349 164.458 128.377 164.359 128.383L164.322 128.384C163.984 128.384 163.708 128.12 163.688 127.787L163.687 127.75V127.623C163.687 127.248 164.009 126.955 164.382 126.991C187.695 129.206 200.993 125.856 206.628 117.688C209.027 114.21 210.067 109.84 209.971 104.446C209.895 100.151 209.142 95.4428 207.67 89.174L207.497 88.4419L194.252 44.6089L194.22 44.5386C193.709 43.4439 193.205 42.7599 192.693 42.3698L192.644 42.333C192.305 42.0878 192.075 42.0035 191.517 41.8944L191.37 41.8665C190.584 41.7206 190.182 41.524 189.847 40.9207L189.355 40.0128C188.884 39.141 188.479 38.3772 188.135 37.7177L187.879 37.225L187.819 37.1097L187.78 37.1385C185.906 38.4982 183.518 39.3731 180.735 39.8373L180.564 39.8653C177.492 40.3564 174.226 40.3242 171.138 39.9762C170.863 39.9451 170.602 39.9128 170.357 39.8799L170.006 39.8307L169.988 40.1699C169.972 40.4896 169.956 40.8526 169.94 41.2612L169.907 42.1801L169.879 43.1162C169.874 43.3125 169.869 43.5141 169.864 43.7213C169.829 45.1482 169.365 45.9461 168.206 47.0581L167.891 47.3555C166.6 48.5662 166.187 49.3581 166.341 51.1241L166.347 51.1909L172.159 82.3218C172.24 82.7549 171.867 83.1325 171.439 83.0655L171.403 83.0589L155.241 79.6109C154.99 79.5573 154.796 79.3575 154.75 79.1048C154.138 75.7745 153.16 72.4284 151.775 69.3337C150.051 65.4835 147.795 62.2397 144.954 59.7985C144.689 59.5701 144.658 59.1694 144.887 58.9036C145.115 58.6378 145.516 58.6075 145.782 58.836C148.776 61.4095 151.138 64.8052 152.933 68.8151C154.279 71.8218 155.25 75.0475 155.883 78.2713L155.919 78.4578L170.736 81.619L165.092 51.3815L165.086 51.3397C164.965 50.0834 165.131 49.0778 165.562 48.2255C165.88 47.5966 166.248 47.1623 166.941 46.5063L167.19 46.2727C168.21 45.3176 168.554 44.782 168.593 43.7607L168.616 42.8859C168.622 42.692 168.627 42.5036 168.633 42.3205L168.661 41.4896C168.687 40.7892 168.713 40.2089 168.74 39.7388L168.766 39.3198L168.788 39.0358C168.821 38.6764 169.146 38.4197 169.499 38.4647L169.774 38.5111C169.841 38.522 169.914 38.5335 169.993 38.5455C170.37 38.6031 170.802 38.6609 171.281 38.7149C174.264 39.0512 177.421 39.0823 180.363 38.6119C183.353 38.134 185.829 37.1699 187.625 35.6485Z" fill="#398CBF"/>
<path fill-rule="evenodd" clip-rule="evenodd" d="M166.406 155.715C166.744 155.71 167.024 155.97 167.049 156.303L167.05 156.34L167.325 174.426C167.331 174.777 167.051 175.065 166.701 175.07C166.363 175.076 166.082 174.816 166.058 174.483L166.056 174.446L165.781 156.359C165.776 156.009 166.056 155.72 166.406 155.715Z" fill="#398CBF"/>
<path fill-rule="evenodd" clip-rule="evenodd" d="M162.904 80.5975C160.344 79.5399 156.96 79.1379 154.717 78.7783C155.204 81.4014 155.331 83.686 155.267 85.2302C154.781 96.3782 150.423 100.715 149.387 104.819C162.798 99.8897 163.835 86.8167 162.904 80.5975Z" fill="#398CBF"/>
<path fill-rule="evenodd" clip-rule="evenodd" d="M142.83 145.73C142.555 148.078 142.005 149.073 136.505 151.907C135.088 152.626 132.126 154.192 128.17 156.18C128.995 166.355 129.461 173.844 129.461 173.844L145.982 174.076C145.982 174.076 145.516 157.069 145.178 139.786C144.205 141.669 142.999 144.313 142.83 145.73Z" fill="#4439BF"/>
<path fill-rule="evenodd" clip-rule="evenodd" d="M144.755 106.405C144.966 97.288 141.476 88.34 138.091 82.3747C137.541 90.6881 135.786 100.334 133.882 103.486C124.997 97.3303 118.334 93.7977 113.003 90.9842C109.64 85.5689 106.805 80.7247 105.578 77.2132C105.599 76.6843 105.62 76.1343 105.62 75.6055C105.409 75.6266 105.219 75.6478 105.049 75.6689C106.53 80.5554 109.724 87.4939 116.345 96.8015C117.615 98.2823 118.863 99.9534 120.047 101.794C121.634 104.269 123.072 111.271 124.32 119.986C131.682 118.971 137.372 118.759 138.409 120.324L144.797 121.551C144.564 109.367 144.649 111.398 144.755 106.405Z" fill="#4439BF"/>
<path fill-rule="evenodd" clip-rule="evenodd" d="M153.132 136.647C153.475 136.577 153.811 136.798 153.881 137.141C153.949 137.472 153.745 137.796 153.423 137.882L153.386 137.89L143.571 139.9C143.228 139.97 142.892 139.749 142.822 139.405C142.754 139.074 142.958 138.751 143.28 138.665L143.317 138.656L153.132 136.647Z" fill="#398CBF"/>
<path fill-rule="evenodd" clip-rule="evenodd" d="M145.687 120.677C151.797 118.652 157.006 119.905 161.234 123.613C164.222 126.233 166.491 129.933 167.607 133.102L167.678 133.306C168.718 136.359 170.056 142.28 170.217 144.407L170.354 146.24C170.39 146.734 170.422 147.184 170.453 147.641L170.492 148.221C170.579 149.562 170.645 150.804 170.689 151.988L170.703 152.369C170.778 154.631 170.759 156.503 170.625 157.92L170.606 158.113C170.402 160.078 169.99 161.148 168.994 161.213C167.925 161.279 167.113 159.963 166.146 157.427C165.507 155.751 164.866 153.632 164.321 151.538C164.233 151.199 164.437 150.852 164.776 150.764C165.115 150.676 165.462 150.879 165.55 151.218C166.084 153.271 166.712 155.349 167.332 156.975L167.426 157.218C167.77 158.096 168.1 158.799 168.403 159.291C168.555 159.538 168.696 159.723 168.817 159.84L168.858 159.879L168.89 159.905L168.905 159.88C168.94 159.822 168.978 159.743 169.015 159.645L169.034 159.594C169.176 159.195 169.287 158.588 169.362 157.801C169.497 156.372 169.509 154.417 169.421 152.035L169.401 151.529C169.358 150.51 169.3 149.443 169.225 148.303L169.187 147.727C169.164 147.386 169.14 147.049 169.115 146.694L168.946 144.429C168.764 142.309 167.412 136.376 166.41 133.524C165.361 130.545 163.205 127.029 160.398 124.567C156.456 121.11 151.654 119.981 145.912 121.94L145.885 121.949L145.857 121.956L136.232 124.304C135.892 124.387 135.549 124.179 135.465 123.838C135.385 123.51 135.577 123.179 135.896 123.081L135.932 123.071L145.53 120.73L145.687 120.677Z" fill="#398CBF"/>
<path fill-rule="evenodd" clip-rule="evenodd" d="M153.156 134.71C153.19 134.362 153.5 134.107 153.849 134.141C154.198 134.175 154.453 134.485 154.419 134.834L154.406 134.955C154.388 135.119 154.365 135.299 154.334 135.509L154.259 136.005C154.21 136.308 154.121 136.865 154.096 137.025L154.049 137.333C153.859 138.588 153.764 139.532 153.757 140.474C153.745 141.972 153.979 143.205 154.513 144.176C154.682 144.484 154.569 144.869 154.262 145.038C153.955 145.207 153.569 145.095 153.4 144.787C152.748 143.599 152.474 142.161 152.488 140.464C152.496 139.411 152.604 138.377 152.817 136.991L153.029 135.653L153.077 135.333C153.113 135.085 153.139 134.886 153.156 134.71Z" fill="#398CBF"/>
<path fill-rule="evenodd" clip-rule="evenodd" d="M166.766 143.662C167.101 143.701 167.345 143.996 167.325 144.329L167.32 144.38L167.308 144.48C167.296 144.57 167.282 144.674 167.266 144.792L167.228 145.048C167.189 145.312 167.143 145.595 167.091 145.894C166.893 147.035 166.643 148.177 166.336 149.247L166.268 149.48C165.436 152.285 164.363 154.08 162.835 154.43C161.145 154.816 159.969 154.336 159.341 153.285C159.179 153.015 159.069 152.73 158.999 152.445C158.956 152.271 158.936 152.13 158.93 152.035C158.906 151.685 159.17 151.382 159.52 151.359C159.857 151.336 160.151 151.581 160.192 151.912L160.196 151.949C160.198 151.975 160.208 152.045 160.232 152.143C160.273 152.312 160.338 152.481 160.43 152.634C160.772 153.205 161.391 153.458 162.552 153.192C163.484 152.979 164.401 151.392 165.116 148.897C165.409 147.876 165.65 146.777 165.841 145.677L165.889 145.393C165.927 145.162 165.961 144.942 165.991 144.736L166.027 144.486L166.061 144.218C166.102 143.87 166.417 143.621 166.766 143.662Z" fill="#398CBF"/>
<path fill-rule="evenodd" clip-rule="evenodd" d="M163.264 143.353C163.608 143.423 163.829 143.758 163.759 144.101L163.738 144.202C163.721 144.28 163.701 144.371 163.677 144.473C163.61 144.763 163.53 145.085 163.437 145.431C163.172 146.423 162.855 147.414 162.486 148.344L162.396 148.568C161.383 151.042 160.184 152.613 158.644 152.852C156.977 153.11 155.848 152.586 155.275 151.544C155.113 151.251 155.011 150.942 154.955 150.635C154.921 150.447 154.909 150.295 154.909 150.194C154.909 149.843 155.193 149.559 155.543 149.559C155.881 149.559 156.158 149.823 156.177 150.156L156.179 150.22C156.181 150.258 156.188 150.323 156.203 150.406C156.237 150.587 156.297 150.768 156.387 150.932C156.697 151.496 157.299 151.776 158.45 151.597C159.423 151.447 160.434 150.077 161.306 147.877C161.655 146.997 161.957 146.05 162.211 145.103L162.276 144.858C162.327 144.659 162.374 144.469 162.416 144.292L162.466 144.077L162.516 143.848C162.586 143.504 162.921 143.283 163.264 143.353Z" fill="#398CBF"/>
<path fill-rule="evenodd" clip-rule="evenodd" d="M150.332 143.072C151.659 141.952 153.383 142.421 155.087 145.139C155.273 145.436 155.183 145.827 154.886 146.013C154.59 146.2 154.198 146.11 154.012 145.813C153.248 144.595 152.571 143.982 152.014 143.831C151.683 143.74 151.406 143.826 151.15 144.042C151.103 144.082 151.061 144.122 151.026 144.159L151.009 144.178L151.01 144.202C151.013 144.241 151.018 144.285 151.024 144.334L151.032 144.386C151.073 144.641 151.16 144.945 151.307 145.297C151.724 146.299 152.531 147.491 153.827 148.87C154.497 149.582 154.973 149.626 155.517 149.183C156.072 148.732 156.628 147.808 157.133 146.567C157.417 145.869 157.668 145.118 157.881 144.366L157.943 144.145C157.983 144.001 158.019 143.863 158.051 143.734L158.102 143.531L158.139 143.371C158.216 143.029 158.555 142.813 158.897 142.889C159.227 142.962 159.439 143.28 159.386 143.61L159.376 143.657L159.336 143.829C159.327 143.866 159.317 143.904 159.307 143.945L159.255 144.15C159.21 144.326 159.159 144.514 159.102 144.712C158.877 145.506 158.612 146.3 158.309 147.045C157.729 148.469 157.079 149.548 156.318 150.168C155.247 151.04 154.019 150.927 152.902 149.739C151.507 148.255 150.615 146.936 150.135 145.785C149.816 145.019 149.712 144.415 149.741 143.982L149.745 143.933C149.749 143.894 149.753 143.862 149.758 143.837C149.773 143.758 149.802 143.683 149.845 143.615C149.939 143.465 150.1 143.268 150.332 143.072Z" fill="#398CBF"/>
<path fill-rule="evenodd" clip-rule="evenodd" d="M142.957 144.249C135.468 138.178 132.951 122.905 136.103 119.563C136.23 118.505 138.663 120.282 140.122 120.451C143.655 120.853 145.178 120.959 145.178 120.959C143.74 125.359 145.347 130.689 146.976 134.476C147.928 136.739 148.922 138.516 149.409 139.341C149.134 139.489 147.991 140.039 145.284 141.224C143.74 141.922 143.422 143.086 142.957 144.249Z" fill="#398CBF"/>
<path fill-rule="evenodd" clip-rule="evenodd" d="M83.5894 120.695C85.8582 119.939 88.8708 119.494 91.5182 119.734C95.1881 120.067 97.9506 121.641 99.2852 124.703C99.4252 125.024 99.2783 125.398 98.957 125.538C98.6357 125.678 98.2617 125.531 98.1217 125.21C96.9965 122.628 94.6522 121.293 91.4036 120.998C88.9455 120.775 86.104 121.195 83.9907 121.899C83.6582 122.01 83.2988 121.83 83.188 121.498C83.0772 121.165 83.2569 120.806 83.5894 120.695Z" fill="#398CBF"/>
<path fill-rule="evenodd" clip-rule="evenodd" d="M111.06 121.621C127.442 118.384 137.282 117.465 138.938 119.975C138.951 119.995 138.963 120.014 138.973 120.035L138.988 120.066L146.773 137.497C146.848 137.666 146.846 137.858 146.768 138.025L146.744 138.07L146.606 138.326L146.504 138.515C146.416 138.679 146.323 138.856 146.224 139.045C145.829 139.802 145.434 140.591 145.065 141.373C144.879 141.769 144.704 142.153 144.543 142.523C143.931 143.925 143.543 145.054 143.446 145.767L143.439 145.825C143.113 148.612 142.087 149.732 137.085 152.332L136.586 152.591C135.465 153.183 130.641 155.778 128.587 156.859C123.776 159.39 119.16 161.702 114.451 163.893C109.028 166.416 103.83 168.611 98.8973 170.417C92.4963 172.76 86.7027 174.389 81.6252 175.19C81.279 175.244 80.9541 175.008 80.8994 174.662C80.8448 174.316 81.0812 173.991 81.4274 173.936C86.4135 173.149 92.1313 171.542 98.461 169.225C103.357 167.432 108.523 165.251 113.915 162.742C118.4 160.656 122.802 158.457 127.372 156.063L128.502 155.468C130.929 154.184 135.654 151.641 136.193 151.364L136.626 151.14C141.079 148.821 141.881 147.974 142.161 145.816L142.178 145.678C142.279 144.809 142.703 143.566 143.38 142.016C143.546 141.634 143.726 141.239 143.917 140.833C144.293 140.033 144.696 139.229 145.099 138.458L145.274 138.124L145.486 137.728L137.854 120.64L137.843 120.625C137.21 119.84 134.185 119.597 129.356 120.027L129.057 120.054C124.477 120.482 118.441 121.456 111.306 122.866C108.862 123.349 106.319 123.878 103.701 124.444C99.2854 125.399 94.8536 126.419 90.5973 127.442L89.2818 127.76C87.9959 128.072 86.8088 128.365 85.737 128.632L85.0175 128.813L83.9477 129.084C83.6082 129.171 83.2623 128.966 83.1751 128.627C83.091 128.3 83.2781 127.966 83.596 127.865L83.6447 127.851L85.2161 127.454L86.5417 127.124C87.3847 126.916 88.2868 126.695 89.2414 126.464L89.5031 126.4C94.0106 125.311 98.7302 124.221 103.433 123.203C106.058 122.636 108.608 122.106 111.06 121.621Z" fill="#398CBF"/>
<path fill-rule="evenodd" clip-rule="evenodd" d="M105.963 64.7969L106 64.797C106.35 64.8082 106.625 65.1013 106.614 65.4516L106.252 76.6431L106.237 77.1149L106.263 77.1884C107.33 80.1504 109.486 84.0675 113.325 90.2658L113.472 90.5039L114.483 91.0393C121.76 94.9052 126.613 97.7411 133.001 102.098L133.679 102.562L133.727 102.459C135.321 99.04 136.88 90.7445 137.445 82.8333L137.479 82.3335C137.502 81.9838 137.804 81.719 138.154 81.7422C138.504 81.7653 138.769 82.0676 138.745 82.4173C138.159 91.279 136.334 100.689 134.446 103.815C134.257 104.128 133.843 104.217 133.542 104.009L133.04 103.663C125.978 98.8063 120.92 95.8699 112.728 91.5462C112.628 91.4936 112.544 91.4155 112.485 91.3198L111.881 90.3435C108.142 84.2785 106.05 80.4277 105 77.4232C104.974 77.3496 104.962 77.2718 104.965 77.1939L105.345 65.4109C105.356 65.0732 105.629 64.8055 105.963 64.7969Z" fill="#398CBF"/>
<path fill-rule="evenodd" clip-rule="evenodd" d="M103.213 49.2938C103.562 49.2612 103.871 49.5177 103.904 49.8667C103.936 50.2157 103.68 50.525 103.331 50.5575C101.965 50.685 100.547 51.073 99.4173 51.8434C97.8015 52.9457 97.0963 54.6463 97.6117 57.206C98.0186 59.2581 99.0655 60.3704 100.658 60.7848C101.933 61.1167 103.497 60.9845 105.154 60.5255C105.492 60.432 105.842 60.63 105.935 60.9678C106.029 61.3055 105.831 61.6552 105.493 61.7487C103.64 62.2619 101.87 62.4116 100.338 62.0131C98.2743 61.476 96.8683 59.9821 96.3671 57.4547C95.7508 54.3937 96.6675 52.1829 98.702 50.7949C100.044 49.8793 101.652 49.4395 103.213 49.2938Z" fill="#398CBF"/>
<path fill-rule="evenodd" clip-rule="evenodd" d="M145.159 37.4927C145.506 37.4474 145.825 37.6925 145.87 38.04C146.874 45.7486 146.669 54.6416 145.595 62.9532C145.55 63.3008 145.232 63.5461 144.884 63.5012C144.537 63.4563 144.291 63.1381 144.336 62.7905C145.397 54.5796 145.6 45.7926 144.611 38.2039C144.566 37.8564 144.811 37.5379 145.159 37.4927Z" fill="#398CBF"/>
<path fill-rule="evenodd" clip-rule="evenodd" d="M144.337 62.7678C144.382 62.4203 144.701 62.1756 145.049 62.2213C145.396 62.267 145.641 62.5857 145.595 62.9332L145.506 63.5952C145.158 66.1468 144.768 68.4229 144.38 70.1993C144.305 70.5417 143.967 70.7587 143.625 70.6839C143.282 70.6091 143.065 70.2709 143.14 69.9285L143.205 69.6251C143.597 67.7754 143.99 65.4077 144.337 62.7678Z" fill="#398CBF"/>
<path fill-rule="evenodd" clip-rule="evenodd" d="M107.901 50.8161L103.247 51.1546C102.876 51.1816 102.61 51.5203 102.666 51.8835L102.686 51.9812L103.207 54.3964L103.392 55.2484C103.863 57.4115 104.341 59.5748 104.804 61.63L105.08 62.8483L105.418 64.3263C106.242 67.9013 106.895 70.5583 107.325 72.0228L107.382 72.2151C108.877 77.1895 110.175 79.0008 115.383 82.7431C118.362 84.8844 122.878 86.3261 127.236 86.4608C132.218 86.6148 136.534 85.1014 139.274 81.8543C141.008 79.7943 142.372 77.0709 143.42 73.8448C144.264 71.2447 144.857 68.4655 145.243 65.6873C145.378 64.7155 145.478 63.8127 145.548 63.0018L145.565 62.7942C145.573 62.6935 145.581 62.5972 145.587 62.5057L145.609 62.1893L145.621 61.9706C145.635 61.6793 145.448 61.4163 145.169 61.3331C143.918 60.9608 141.857 60.6994 139.273 60.5208C138.495 60.4671 137.714 60.4243 136.954 60.391L136.576 60.3752C136.306 60.3644 136.053 60.3554 135.822 60.348L135.313 60.3338L135.29 60.3337C129.85 60.4153 124.709 61.0133 120.009 61.9597C118.312 62.3016 116.785 62.667 115.447 63.0338L115.127 63.1228C114.868 63.1954 114.628 63.2652 114.406 63.3315L114.183 63.3986L114.17 63.3505C113.035 59.4644 109.763 52.3885 108.4 51.0039C108.269 50.8713 108.087 50.8026 107.901 50.8161ZM107.678 52.1045L107.7 52.1327C109.1 53.9345 112.319 61.068 113.127 64.3558C113.213 64.7056 113.571 64.9113 113.913 64.8159L114.227 64.7141L114.364 64.6707C114.713 64.5617 115.125 64.44 115.598 64.3087L115.972 64.206C117.236 63.864 118.671 63.5235 120.26 63.2036L120.576 63.1406C125.012 62.2662 129.842 61.7074 134.944 61.6087L135.293 61.6025L135.669 61.6128C135.927 61.6206 136.214 61.6306 136.525 61.643C137.391 61.6777 138.291 61.7249 139.185 61.7867L139.649 61.8201C141.54 61.9621 143.115 62.1532 144.203 62.3948L144.321 62.4218L144.3 62.692C144.295 62.7569 144.289 62.8238 144.283 62.8927L144.25 63.2636C144.185 63.955 144.098 64.7092 143.986 65.5122C143.609 68.2219 143.032 70.9305 142.213 73.4524C141.212 76.5355 139.917 79.1183 138.304 81.0361C135.842 83.9524 131.9 85.3348 127.275 85.1918C123.162 85.0647 118.891 83.7012 116.123 81.712L115.829 81.4996C111.194 78.1382 110.03 76.5271 108.682 72.1273L108.56 71.7251C108.116 70.2235 107.405 67.3182 106.504 63.3826L106.255 62.2892L106.042 61.3503C105.686 59.772 105.322 58.1295 104.958 56.4721L104.402 53.9213L104.067 52.3672L107.678 52.1045Z" fill="#398CBF"/>
<path fill-rule="evenodd" clip-rule="evenodd" d="M131.808 72.0739C131.808 72.0739 135.256 71.3759 136.673 72.772L131.808 72.0739Z" fill="white"/>
<path fill-rule="evenodd" clip-rule="evenodd" d="M132.289 71.3567C133.057 71.2597 133.851 71.2299 134.606 71.3089C135.658 71.4192 136.521 71.731 137.119 72.3195C137.368 72.5655 137.371 72.9673 137.126 73.217C136.88 73.4666 136.478 73.4697 136.228 73.2237C135.872 72.8732 135.266 72.6543 134.473 72.5713C133.829 72.5038 133.127 72.5302 132.449 72.6159C132.335 72.6302 132.23 72.6454 132.134 72.6606L131.962 72.6901C131.95 72.6923 131.941 72.6942 131.934 72.6955C131.59 72.7651 131.256 72.543 131.186 72.1995C131.117 71.8559 131.339 71.5211 131.682 71.4515L131.819 71.426C131.94 71.4051 132.099 71.3808 132.289 71.3567Z" fill="#398CBF"/>
<path fill-rule="evenodd" clip-rule="evenodd" d="M136.136 55.3879C136.472 55.3499 136.777 55.5813 136.833 55.9101L136.838 55.9471L138.108 67.1585C138.156 67.5883 137.772 67.9358 137.354 67.8526L137.318 67.8444L133.384 66.829C133.045 66.7414 132.84 66.3953 132.928 66.056C133.012 65.7287 133.337 65.5272 133.665 65.5918L133.701 65.6001L136.743 66.385L135.577 56.0898C135.539 55.754 135.771 55.4498 136.1 55.3931L136.136 55.3879Z" fill="#398CBF"/>
<path fill-rule="evenodd" clip-rule="evenodd" d="M140.333 59.0636C140.964 59.0636 141.476 58.268 141.476 57.2867C141.476 56.3053 140.964 55.5098 140.333 55.5098C139.702 55.5098 139.191 56.3053 139.191 57.2867C139.191 58.268 139.702 59.0636 140.333 59.0636Z" fill="#398CBF"/>
<path fill-rule="evenodd" clip-rule="evenodd" d="M129.291 58.8527C129.922 58.8527 130.434 58.0571 130.434 57.0757C130.434 56.0944 129.922 55.2988 129.291 55.2988C128.66 55.2988 128.149 56.0944 128.149 57.0757C128.149 58.0571 128.66 58.8527 129.291 58.8527Z" fill="#398CBF"/>
<path fill-rule="evenodd" clip-rule="evenodd" d="M124.993 46.2821C126.199 45.3981 127.674 44.9592 129.385 45.2147C129.731 45.2665 129.97 45.5895 129.918 45.9361C129.867 46.2828 129.544 46.5218 129.197 46.47C127.841 46.2674 126.695 46.6086 125.743 47.3061C125.474 47.5026 125.243 47.7131 125.051 47.9221L124.989 47.9907C124.932 48.0552 124.89 48.107 124.862 48.1427L124.84 48.173C124.639 48.4604 124.244 48.5307 123.956 48.33C123.669 48.1293 123.599 47.7337 123.799 47.4464C123.859 47.3605 123.965 47.2273 124.117 47.0625C124.363 46.7954 124.654 46.5299 124.993 46.2821Z" fill="#398CBF"/>
<path fill-rule="evenodd" clip-rule="evenodd" d="M140.045 44.9846C140.698 44.8825 141.39 44.8791 142.058 45.0442C143.185 45.3228 144.032 46.0444 144.409 47.2632C144.512 47.5981 144.325 47.9534 143.99 48.0569C143.655 48.1604 143.3 47.9728 143.196 47.6379C142.959 46.87 142.47 46.4534 141.754 46.2764C141.274 46.1578 140.741 46.1603 140.242 46.2385L140.163 46.2515C140.102 46.2622 140.054 46.272 140.019 46.2797L139.985 46.2878C139.646 46.376 139.3 46.1726 139.211 45.8333C139.123 45.4941 139.327 45.1477 139.666 45.0595C139.745 45.0389 139.875 45.0113 140.045 44.9846Z" fill="#398CBF"/>
<path fill-rule="evenodd" clip-rule="evenodd" d="M152.539 36.3026C152.264 35.4776 152.581 34.4834 153.152 33.4892L153.004 33.32L152.285 35.3296C152.285 35.3296 150.043 36.3026 149.302 33.4257C149.07 32.5373 149.599 31.4796 150.424 30.4219L150.402 30.4008C147.293 31.12 141.179 32.3046 140.629 31.0777C139.847 29.3431 150.847 24.7316 154.21 23.272C155.923 22.5104 161.868 20.8816 165.083 20.4162C166.395 20.2258 168.764 20.0566 171.471 20.3316C171.704 18.4278 171.387 16.5028 170.371 14.6412C169.335 12.7162 167.156 9.88165 165.231 8.84512C146.129 -1.28751 136.822 15.8258 136.822 15.8258C136.822 15.8258 134.135 8.46435 125.42 8.21051C121.866 8.10474 118.397 9.50089 115.879 12.0182C108.751 19.1681 113.51 27.2489 113.51 27.2489C113.51 27.2489 110.189 25.5566 105.705 27.7142C100.353 30.295 97.6661 36.3661 99.0623 42.1411C100.543 48.2757 103.272 54.1141 103.272 54.1141C120.66 56.8006 125.102 39.7295 122.543 37.5296C126.393 40.3853 133.331 42.2891 145.072 41.1045C147.758 40.8295 151.058 39.7719 154.422 38.1642C153.745 38.1007 153.004 37.6776 152.539 36.3026Z" fill="#398CBF"/>
<path fill-rule="evenodd" clip-rule="evenodd" d="M168.674 34.057C169.002 33.9754 169.334 34.165 169.433 34.4836L169.443 34.5195L172.054 45.0026L187.114 40.5375C187.438 40.4414 187.778 40.6161 187.891 40.93L187.903 40.9655C187.999 41.2895 187.824 41.6295 187.51 41.7427L187.475 41.7543L171.779 46.4081C171.444 46.5073 171.095 46.3177 170.992 45.9888L170.982 45.9531L168.211 34.8262C168.127 34.4861 168.334 34.1417 168.674 34.057Z" fill="#398CBF"/>
<path fill-rule="evenodd" clip-rule="evenodd" d="M164.991 19.788C168.373 19.2902 172.908 19.4896 176.796 20.7814C182.393 22.6406 186.132 26.4988 187.151 32.6958L187.176 32.8489L189.41 41.1939C189.495 41.5139 189.32 41.8435 189.013 41.9547L188.977 41.9665L174.042 46.3876C173.706 46.4871 173.353 46.2953 173.254 45.9593C173.158 45.6352 173.333 45.2953 173.647 45.1822L173.682 45.1706L188.024 40.9248L185.941 33.1452C185.938 33.1342 185.936 33.123 185.933 33.1118L185.927 33.078C185.031 27.2745 181.624 23.7224 176.396 21.9859C172.777 20.7835 168.518 20.5792 165.333 21.0213L165.174 21.0439C162.225 21.4708 156.376 23.0266 154.523 23.8276L152.407 24.7432C152.182 24.8413 151.964 24.9367 151.743 25.0334L151.23 25.2595C150.132 25.7456 149.118 26.2068 148.151 26.663C147.281 27.0743 146.475 27.4694 145.739 27.8482L145.462 27.9914C144.053 28.726 142.946 29.3805 142.196 29.9363C141.781 30.2433 141.487 30.5119 141.327 30.7248C141.312 30.7451 141.298 30.7642 141.287 30.782L141.263 30.8199L141.3 30.8348C141.456 30.8926 141.692 30.9354 141.997 30.9573C142.61 31.0014 143.454 30.9588 144.482 30.8384C146.17 30.6406 148.258 30.2451 150.26 29.7821C150.601 29.7031 150.942 29.9159 151.021 30.2574C151.1 30.5989 150.887 30.9397 150.546 31.0187C148.578 31.4739 146.53 31.8649 144.825 32.0755L144.63 32.0989C141.991 32.4082 140.482 32.2998 140.051 31.3383C139.476 30.0628 141.225 28.751 145.042 26.7795L145.158 26.7195C145.908 26.3337 146.726 25.9324 147.61 25.5153L148.064 25.3022C148.979 24.875 149.939 24.4415 150.973 23.9857L152.037 23.5201L154.082 22.6357C156.109 21.7802 161.97 20.2253 164.991 19.788Z" fill="#398CBF"/>
<path fill-rule="evenodd" clip-rule="evenodd" d="M172.71 32.0051C173.003 31.8131 173.397 31.8952 173.589 32.1884C173.781 32.4816 173.699 32.875 173.405 33.067C172.362 33.7503 170.14 34.8502 168 35.7084C165.266 36.8052 162.901 37.4422 161.28 37.4012C160.93 37.3923 160.653 37.1011 160.662 36.7507C160.671 36.4004 160.962 36.1235 161.312 36.1324C162.713 36.1678 164.944 35.5671 167.528 34.5305L167.879 34.3875C169.835 33.582 171.8 32.601 172.71 32.0051Z" fill="#398CBF"/>
<path fill-rule="evenodd" clip-rule="evenodd" d="M156.258 25.3252C156.455 25.6148 156.38 26.0096 156.091 26.207L155.91 26.3333L155.823 26.3947C155.606 26.5495 155.364 26.7271 155.103 26.9245C154.357 27.4886 153.611 28.0971 152.917 28.7256C152.053 29.5085 151.332 30.2659 150.806 30.9696C150.078 31.9431 149.777 32.7437 149.917 33.2867C150.137 34.1357 150.488 34.5831 150.924 34.767C151.224 34.8938 151.565 34.8935 151.89 34.811C151.921 34.8029 151.95 34.7946 151.976 34.7864L152.037 34.7656C152.36 34.6287 152.733 34.7792 152.869 35.1018C153.006 35.4244 152.856 35.797 152.533 35.9339C152.46 35.9649 152.348 36.0039 152.203 36.0409C151.634 36.1859 151.023 36.1865 150.43 35.9364C149.608 35.5893 149.003 34.8175 148.688 33.6041C148.428 32.5936 148.853 31.4615 149.789 30.2094C150.371 29.4315 151.145 28.6181 152.065 27.7848C152.79 27.1288 153.564 26.4973 154.337 25.9122L154.537 25.7624C154.667 25.6652 154.793 25.5732 154.912 25.4868L155.177 25.2966L155.376 25.1581C155.666 24.9607 156.06 25.0355 156.258 25.3252Z" fill="#398CBF"/>
<path fill-rule="evenodd" clip-rule="evenodd" d="M158.086 28.1999C158.299 28.4609 158.27 28.8406 158.026 29.0665L157.99 29.0979L157.87 29.1983L157.786 29.2701C157.614 29.4171 157.422 29.5859 157.215 29.7738C156.624 30.3109 156.033 30.8912 155.484 31.4918C154.771 32.2699 154.183 33.0229 153.762 33.7217C153.16 34.7213 152.948 35.5366 153.139 36.0966C153.397 36.8517 153.74 37.2692 154.137 37.4505C154.458 37.5976 154.822 37.5891 155.174 37.4783L155.239 37.4566C155.289 37.4393 155.325 37.4241 155.345 37.4145L155.356 37.4094C155.667 37.2478 156.05 37.3689 156.211 37.6799C156.373 37.9909 156.252 38.3741 155.941 38.5357C155.856 38.5795 155.725 38.6355 155.555 38.6891C154.929 38.8858 154.257 38.9015 153.608 38.6046C152.874 38.2683 152.302 37.5736 151.938 36.5062C151.599 35.5107 151.899 34.356 152.675 33.0671C153.144 32.2867 153.782 31.4703 154.547 30.6347C155.126 30.0029 155.744 29.396 156.362 28.8345L156.543 28.6708C156.662 28.565 156.775 28.4658 156.881 28.3737L157.007 28.2663L157.193 28.11C157.464 27.8882 157.864 27.9285 158.086 28.1999Z" fill="#398CBF"/>
<path fill-rule="evenodd" clip-rule="evenodd" d="M159.577 31.6708C159.845 31.445 160.245 31.4791 160.471 31.7472C160.697 32.0152 160.662 32.4155 160.394 32.6414L160.285 32.7357L160.229 32.7845C160.094 32.9039 159.943 33.0409 159.78 33.1931C159.313 33.6283 158.847 34.0973 158.414 34.5806C157.892 35.1625 157.454 35.7246 157.13 36.2463L157.053 36.3718C156.227 37.7533 156.345 38.474 157.596 38.8215C160.063 39.5068 161.717 39.5377 162.706 39.2077C162.771 39.1859 162.828 39.164 162.876 39.1426L162.9 39.1318L162.908 39.1121C162.995 38.8703 163.013 38.6287 162.933 38.4177L162.915 38.373C162.682 37.8587 161.848 37.4469 160.128 37.3158C159.778 37.2891 159.516 36.9842 159.543 36.6348C159.57 36.2853 159.875 36.0236 160.224 36.0502C162.358 36.2129 163.609 36.8306 164.071 37.8489C164.328 38.4166 164.298 39.0008 164.102 39.5432C164.045 39.7016 163.985 39.824 163.937 39.9042C163.899 39.9699 163.848 40.0281 163.789 40.0759C163.659 40.18 163.436 40.302 163.107 40.4116C161.858 40.8287 159.951 40.7931 157.256 40.0444C154.959 39.4064 154.758 37.6588 156.052 35.5765C156.42 34.9842 156.901 34.366 157.469 33.733C157.93 33.2194 158.422 32.7244 158.914 32.2653L159.082 32.1099C159.136 32.0598 159.189 32.0117 159.241 31.9654L159.478 31.7553C159.521 31.7178 159.554 31.6895 159.577 31.6708Z" fill="#398CBF"/>
<path fill-rule="evenodd" clip-rule="evenodd" d="M167.304 47.0055C170.308 50.9824 190.637 47.9786 193.979 42.8382C192.371 40.6382 191.102 41.8863 190.383 40.5959C188.691 37.4863 188.014 36.1113 188.014 36.1113C184.481 39.1152 178.939 39.644 174.814 39.5594C172.36 39.5382 170.329 39.2844 169.377 39.1575C169.356 39.4748 169.271 40.744 169.187 43.6844C169.166 45.3978 168.214 46.1593 167.304 47.0055Z" fill="#398CBF"/>
<path fill-rule="evenodd" clip-rule="evenodd" d="M278.299 115.502H196.053C194.974 115.502 194.043 116.242 193.789 117.3L182.345 165.7H152.54C152.54 165.7 150.89 174.225 160.515 174.225H265.522C266.601 174.225 267.531 173.484 267.785 172.427L280.562 118.358C280.9 116.898 279.8 115.502 278.299 115.502Z" fill="#398CBF"/>
<path fill-rule="evenodd" clip-rule="evenodd" d="M271.508 136.064C266.304 136.064 262.221 131.621 262.644 126.439C262.961 122.61 263.004 120.241 263.406 118.464C263.956 116.01 268.673 112.646 274.194 108.585C277.092 106.47 279.102 104.481 280.223 102.641C281.344 100.8 281.915 98.5369 281.915 95.8292C281.915 92.487 280.858 89.8427 278.721 87.9178C276.606 85.9928 274.025 85.0409 271 85.0409C264.992 85.0409 260.973 88.2139 258.9 94.5812C257.525 98.8119 253.273 101.393 248.873 100.779C243.014 99.9542 239.523 93.862 241.702 88.362C243.669 83.3909 246.483 79.3293 250.142 76.1563C256.213 70.9102 263.66 68.2871 272.417 68.2871C281.365 68.2871 288.875 70.8679 294.925 76.0082C300.975 81.1697 304.021 87.7062 304.021 95.6177C304.021 105.433 298.986 113.641 288.896 120.241C284.517 123.139 281.852 125.402 280.921 127.031C280.604 127.581 280.35 128.279 280.138 129.146C279.208 133.187 275.654 136.064 271.508 136.064ZM272.714 162.57H271.91C266.262 162.57 261.671 157.979 261.671 152.331C261.671 146.683 266.262 142.093 271.91 142.093H272.714C278.362 142.093 282.952 146.683 282.952 152.331C282.952 158.001 278.383 162.57 272.714 162.57Z" fill="#4439BF"/>
<path fill-rule="evenodd" clip-rule="evenodd" d="M62.5938 49.4383C61.4303 49.946 60.0977 49.3537 59.6957 48.1479C59.3996 47.2594 59.188 46.7306 59.1034 46.3075C58.9977 45.7152 59.7169 44.5095 60.5419 43.071C60.9861 42.3306 61.24 41.696 61.3034 41.1672C61.388 40.6595 61.2823 40.0883 61.0284 39.496C60.7111 38.7556 60.2246 38.2691 59.5688 38.0576C58.913 37.8249 58.2573 37.8672 57.5804 38.1633C56.2477 38.7345 55.6554 39.8345 55.8034 41.4422C55.9092 42.521 55.2111 43.4941 54.1746 43.7902C52.7996 44.171 51.4246 43.1556 51.3823 41.7172C51.34 40.4268 51.5727 39.2422 52.0804 38.1845C52.9265 36.4287 54.3227 35.1384 56.2688 34.2922C58.2573 33.4249 60.1611 33.2768 62.0226 33.848C63.863 34.4191 65.1745 35.5614 65.9361 37.3172C66.888 39.496 66.5495 41.8018 64.9419 44.2345C64.2438 45.2921 63.8842 46.0537 63.8207 46.4979C63.7996 46.646 63.8207 46.8364 63.8419 47.0479C64.0322 48.0633 63.5246 49.0364 62.5938 49.4383ZM65.4072 55.2132L65.2168 55.2978C63.9687 55.8478 62.5091 55.2555 61.9591 54.0075C61.4091 52.7594 62.0014 51.2998 63.2495 50.7498L63.4399 50.6652C64.6879 50.1152 66.1475 50.7075 66.6975 51.9556C67.2475 53.2036 66.6764 54.6632 65.4072 55.2132Z" fill="#4439BF"/>
<path fill-rule="evenodd" clip-rule="evenodd" d="M73.8476 22.362C72.1341 22.2774 70.8649 20.7331 71.0976 19.0408C71.2668 17.7928 71.3303 17.0101 71.4995 16.4178C71.7322 15.6139 73.3399 14.5986 75.2437 13.3505C76.2379 12.6947 76.936 12.0813 77.3379 11.5101C77.7398 10.9178 77.9725 10.1986 78.0148 9.28897C78.0783 8.18898 77.7821 7.30053 77.1052 6.62361C76.4495 5.94669 75.6033 5.58707 74.6091 5.52361C72.6206 5.41785 71.2456 6.39092 70.4418 8.44283C69.913 9.81782 68.4534 10.5794 67.0149 10.3044C65.1111 9.92359 64.0534 7.85052 64.8784 6.07361C65.6188 4.46593 66.613 3.17555 67.8822 2.20248C69.9764 0.594798 72.4726 -0.145582 75.3706 0.0236476C78.311 0.192877 80.7437 1.16595 82.6475 2.98517C84.5513 4.80439 85.4398 7.00437 85.2917 9.60628C85.1225 12.8428 83.3033 15.4447 79.8552 17.4543C78.3533 18.3216 77.4437 19.0197 77.1052 19.5485C76.9995 19.7178 76.8937 19.9504 76.8091 20.2254C76.4495 21.5581 75.2225 22.4254 73.8476 22.362ZM73.7627 31.1189L73.4877 31.0977C71.6262 30.9919 70.1877 29.4054 70.2935 27.5439C70.3993 25.6824 71.9858 24.2439 73.8473 24.3497L74.1223 24.3708C75.9839 24.4766 77.4223 26.0631 77.3165 27.9247C77.2319 29.7862 75.6242 31.2246 73.7627 31.1189Z" fill="#4439BF"/>
<path fill-rule="evenodd" clip-rule="evenodd" d="M320.796 173.907C321.147 173.907 321.431 174.191 321.431 174.542C321.431 174.88 321.167 175.156 320.833 175.175L320.796 175.176H0.634611C0.284125 175.176 0 174.892 0 174.542C0 174.204 0.264193 173.928 0.597323 173.908L0.634611 173.907H320.796Z" fill="#398CBF"/>
</svg>
