<svg width="333" height="472" viewBox="0 0 333 472" fill="none" xmlns="http://www.w3.org/2000/svg">
<rect x="28.0244" y="24" width="256" height="441" rx="128" fill="#D8E9F1"/>
<path d="M95.2162 40.8382C95.3325 40.6615 95.4685 40.4994 95.5947 40.3323C120.25 8.74543 158.555 5.80706 188.613 19.9765C203.308 26.898 214.42 45.383 228.143 54.8171C232.71 57.9461 237.56 60.0668 242.926 60.4417C256.966 61.4223 270.504 49.0299 284.477 50.9518C302.315 53.3718 312.059 78.6581 313.897 100.917C316.928 137.722 303.484 177.122 287.391 205.935C278.558 221.766 268.722 236.326 259.249 251.396C251.899 263.126 246.73 281.059 255.546 293.772C267.253 310.644 272.183 274.292 286.339 283.078C321.582 304.948 316.067 349.24 307.308 367.997C299.312 385.154 284.594 396.367 269.914 397.549C267.584 397.738 265.25 397.663 262.936 397.326" stroke="#91CDF2"/>
<path d="M102.626 449.354C98.8081 450.91 95.1484 452.242 91.6263 453.38C49.6418 463.241 -10.1915 394.062 28.0656 352.251" stroke="#91CDF2"/>
<circle cx="275.5" cy="43.5" r="18.5" fill="#91CDF2"/>
<ellipse cx="270" cy="39" rx="5" ry="6" fill="white"/>
<ellipse cx="34.8145" cy="420.11" rx="18.5" ry="18" transform="rotate(-20.2466 34.8145 420.11)" fill="#91CDF2"/>
<ellipse cx="257" cy="174.5" rx="9" ry="8.5" fill="#D7E8F0"/>
<ellipse cx="28.6896" cy="416.506" rx="5" ry="5.5" transform="rotate(-20.2466 28.6896 416.506)" fill="white"/>
<circle cx="321" cy="358" r="9" fill="#91CDF2"/>
<ellipse cx="253.5" cy="173" rx="3.5" ry="3" fill="white"/>
<ellipse cx="317.5" cy="356" rx="2.5" ry="2" fill="white"/>
<ellipse cx="156" cy="9.5" rx="9" ry="9.5" fill="#91CDF2"/>
<ellipse cx="153.5" cy="9" rx="2.5" ry="4" fill="white"/>
<path d="M310.643 259.35C310.535 259.296 310.427 259.242 310.373 259.134C310.319 259.026 310.265 258.918 310.265 258.81C310.265 258.648 310.319 258.486 310.427 258.378C310.535 258.27 310.696 258.217 310.858 258.217H313.773V255.302C313.773 255.194 313.773 255.14 313.773 255.032C313.827 254.924 313.827 254.871 313.881 254.817C313.935 254.763 314.042 254.709 314.096 254.655C314.15 254.601 314.258 254.601 314.366 254.601C314.474 254.601 314.528 254.601 314.636 254.655C314.69 254.709 314.798 254.763 314.852 254.817C314.906 254.871 314.96 254.978 314.96 255.032C315.014 255.14 315.014 255.194 315.014 255.302V259.404H310.912C310.804 259.35 310.75 259.35 310.643 259.35Z" fill="#110580"/>
<path d="M250.9 259.296C250.792 259.242 250.684 259.187 250.63 259.08C250.576 258.972 250.522 258.864 250.522 258.756C250.522 258.594 250.576 258.432 250.684 258.324C250.792 258.216 250.954 258.162 251.115 258.162H258.617C258.779 258.162 258.887 258.27 258.995 258.378C259.103 258.486 259.157 258.648 259.157 258.756C259.157 258.864 259.103 259.026 258.995 259.134C258.887 259.242 258.779 259.295 258.617 259.349H251.115C251.061 259.349 251.008 259.349 250.9 259.296ZM265.849 259.296C265.741 259.242 265.633 259.134 265.579 259.026C265.525 258.918 265.471 258.756 265.525 258.648C265.579 258.486 265.633 258.378 265.741 258.324C265.849 258.216 266.011 258.216 266.119 258.216H273.62C273.782 258.216 273.89 258.324 273.998 258.432C274.106 258.54 274.16 258.702 274.16 258.81C274.16 258.972 274.106 259.08 273.998 259.187C273.89 259.295 273.782 259.349 273.62 259.403H266.173C266.011 259.349 265.903 259.349 265.849 259.296ZM280.798 259.296C280.69 259.242 280.582 259.187 280.528 259.08C280.474 258.972 280.42 258.864 280.42 258.756C280.42 258.594 280.474 258.432 280.582 258.324C280.69 258.216 280.852 258.162 281.014 258.162H288.516C288.57 258.162 288.678 258.162 288.786 258.162C288.84 258.162 288.947 258.216 289.001 258.27C289.055 258.324 289.109 258.378 289.163 258.486C289.217 258.54 289.217 258.648 289.217 258.756C289.217 258.864 289.217 258.918 289.163 259.026C289.109 259.08 289.055 259.188 289.001 259.241C288.947 259.295 288.84 259.349 288.786 259.349C288.678 259.349 288.624 259.403 288.516 259.349H281.014C280.96 259.349 280.852 259.349 280.798 259.296ZM295.747 259.296C295.64 259.242 295.532 259.187 295.478 259.08C295.424 258.972 295.37 258.864 295.37 258.756C295.37 258.702 295.37 258.594 295.424 258.54C295.478 258.486 295.478 258.378 295.532 258.324C295.586 258.27 295.64 258.216 295.747 258.216C295.801 258.162 295.909 258.162 295.963 258.162H303.465C303.627 258.162 303.789 258.216 303.897 258.324C304.005 258.432 304.059 258.594 304.059 258.756C304.059 258.918 304.005 259.08 303.897 259.187C303.789 259.295 303.627 259.349 303.465 259.349H295.963C295.909 259.349 295.801 259.349 295.747 259.296Z" fill="#110580"/>
<path d="M239.566 259.35V255.194C239.566 255.032 239.674 254.924 239.782 254.816C239.89 254.708 240.052 254.654 240.214 254.654C240.376 254.654 240.483 254.708 240.591 254.816C240.699 254.924 240.807 255.032 240.807 255.194V258.108H243.722C243.83 258.108 243.884 258.108 243.991 258.108C244.099 258.108 244.153 258.162 244.207 258.216C244.261 258.27 244.315 258.324 244.369 258.432C244.423 258.486 244.423 258.594 244.423 258.702C244.423 258.81 244.423 258.864 244.369 258.972C244.315 259.026 244.261 259.134 244.207 259.188C244.153 259.242 244.099 259.296 243.991 259.296C243.884 259.296 243.83 259.35 243.722 259.296H239.566V259.35Z" fill="#110580"/>
<path d="M239.89 248.772C239.782 248.718 239.674 248.664 239.62 248.556C239.566 248.448 239.512 248.34 239.512 248.232V241.27C239.512 241.163 239.512 241.109 239.566 241.001C239.566 240.893 239.62 240.839 239.674 240.785C239.728 240.731 239.782 240.677 239.89 240.623C239.944 240.569 240.052 240.569 240.16 240.569C240.268 240.569 240.322 240.569 240.43 240.623C240.484 240.677 240.592 240.731 240.646 240.785C240.7 240.839 240.754 240.947 240.808 241.001C240.808 241.109 240.808 241.163 240.808 241.27V248.232C240.808 248.394 240.754 248.556 240.646 248.664C240.538 248.772 240.376 248.826 240.214 248.826C240.052 248.826 239.998 248.826 239.89 248.772ZM239.89 234.848C239.782 234.794 239.674 234.74 239.62 234.632C239.566 234.524 239.512 234.417 239.512 234.309V227.293C239.512 227.131 239.62 227.023 239.728 226.915C239.836 226.807 239.998 226.753 240.16 226.753C240.322 226.753 240.43 226.807 240.538 226.915C240.646 227.023 240.754 227.131 240.754 227.293V234.309C240.754 234.363 240.754 234.47 240.7 234.524C240.646 234.578 240.646 234.686 240.538 234.74C240.484 234.794 240.43 234.848 240.322 234.848C240.268 234.902 240.16 234.902 240.106 234.902C240.052 234.902 239.998 234.902 239.89 234.848ZM239.89 220.87C239.782 220.816 239.674 220.762 239.62 220.655C239.566 220.547 239.512 220.439 239.512 220.331V213.369C239.512 213.207 239.62 213.099 239.728 212.991C239.836 212.883 239.998 212.829 240.16 212.829C240.322 212.829 240.43 212.883 240.592 212.991C240.7 213.099 240.754 213.207 240.808 213.369V220.331C240.808 220.493 240.754 220.655 240.646 220.762C240.538 220.87 240.376 220.924 240.214 220.924C240.106 220.924 239.998 220.924 239.89 220.87Z" fill="#110580"/>
<path d="M239.944 206.946C239.836 206.892 239.728 206.838 239.674 206.73C239.62 206.622 239.566 206.514 239.566 206.406V202.305H243.668C243.829 202.305 243.938 202.413 244.045 202.521C244.153 202.628 244.207 202.79 244.207 202.898C244.207 203.006 244.153 203.168 244.045 203.276C243.938 203.384 243.829 203.438 243.668 203.492H240.753V206.406C240.753 206.568 240.699 206.73 240.591 206.838C240.483 206.946 240.322 207 240.16 207C240.106 207 239.998 207 239.944 206.946Z" fill="#110580"/>
<path d="M250.9 203.438C250.792 203.384 250.684 203.33 250.63 203.222C250.576 203.114 250.522 203.006 250.522 202.898C250.522 202.844 250.522 202.736 250.576 202.682C250.576 202.628 250.63 202.521 250.684 202.467C250.738 202.413 250.792 202.359 250.9 202.359C250.954 202.305 251.061 202.305 251.115 202.305H258.617C258.725 202.305 258.779 202.305 258.887 202.305C258.995 202.305 259.049 202.359 259.103 202.413C259.157 202.467 259.211 202.521 259.265 202.629C259.319 202.736 259.319 202.79 259.319 202.898C259.319 203.006 259.319 203.06 259.265 203.168C259.211 203.276 259.157 203.33 259.103 203.384C259.049 203.438 258.995 203.492 258.887 203.492C258.779 203.492 258.725 203.546 258.617 203.492H251.115C251.061 203.492 251.008 203.438 250.9 203.438ZM265.849 203.438C265.741 203.384 265.633 203.33 265.579 203.222C265.525 203.114 265.471 203.006 265.471 202.898C265.471 202.736 265.525 202.575 265.633 202.467C265.741 202.359 265.903 202.305 266.065 202.305H273.512C273.674 202.305 273.782 202.413 273.89 202.521C273.998 202.628 274.052 202.79 274.052 202.898C274.052 203.006 273.998 203.168 273.89 203.276C273.782 203.384 273.674 203.438 273.512 203.492H266.011C266.011 203.492 265.957 203.492 265.849 203.438ZM280.798 203.438C280.69 203.384 280.582 203.33 280.528 203.222C280.474 203.114 280.42 203.006 280.42 202.898C280.42 202.844 280.421 202.736 280.474 202.682C280.528 202.628 280.528 202.521 280.582 202.467C280.636 202.413 280.69 202.359 280.798 202.359C280.852 202.305 280.96 202.305 281.014 202.305H288.516C288.678 202.305 288.839 202.359 288.947 202.467C289.055 202.575 289.109 202.736 289.109 202.898C289.109 202.952 289.109 203.06 289.055 203.114C289.001 203.168 289.001 203.276 288.947 203.33C288.893 203.384 288.84 203.438 288.732 203.438C288.624 203.492 288.57 203.492 288.516 203.492H281.014C280.96 203.492 280.906 203.492 280.798 203.438ZM295.747 203.438C295.64 203.384 295.532 203.33 295.478 203.222C295.424 203.114 295.37 203.006 295.37 202.898C295.37 202.736 295.424 202.575 295.586 202.467C295.694 202.359 295.855 202.305 296.017 202.305H303.465C303.627 202.305 303.789 202.359 303.897 202.467C304.005 202.575 304.059 202.736 304.059 202.898C304.059 203.06 304.005 203.222 303.897 203.33C303.789 203.438 303.627 203.492 303.465 203.492H296.017C295.909 203.492 295.855 203.492 295.747 203.438Z" fill="#110580"/>
<path d="M314.258 207C314.15 206.946 314.042 206.892 313.988 206.784C313.934 206.676 313.881 206.568 313.881 206.46V203.546H310.966C310.805 203.546 310.696 203.438 310.589 203.33C310.481 203.222 310.427 203.06 310.427 202.952C310.427 202.79 310.481 202.682 310.589 202.574C310.696 202.466 310.805 202.412 310.966 202.358H315.068V206.46C315.068 206.514 315.068 206.622 315.014 206.676C315.014 206.73 314.96 206.838 314.906 206.892C314.852 206.946 314.798 207 314.69 207C314.636 207.054 314.528 207.054 314.474 207.054C314.366 207.054 314.312 207 314.258 207Z" fill="#110580"/>
<path d="M314.151 248.827C314.043 248.773 313.935 248.719 313.881 248.611C313.827 248.503 313.773 248.395 313.773 248.287V241.325C313.773 241.163 313.881 241.055 313.989 240.947C314.097 240.839 314.259 240.785 314.421 240.785C314.583 240.785 314.69 240.839 314.852 240.947C314.96 241.055 315.014 241.163 315.068 241.325V248.287C315.068 248.395 315.014 248.503 315.014 248.557C314.96 248.665 314.906 248.719 314.798 248.773C314.69 248.827 314.636 248.881 314.528 248.881C314.367 248.881 314.313 248.881 314.151 248.827ZM314.151 234.903C314.043 234.849 313.935 234.795 313.881 234.687C313.827 234.579 313.773 234.471 313.773 234.363V227.401C313.773 227.293 313.773 227.239 313.773 227.131C313.773 227.023 313.827 226.969 313.881 226.915C313.935 226.861 313.989 226.807 314.097 226.753C314.151 226.7 314.259 226.699 314.367 226.699C314.421 226.699 314.529 226.7 314.582 226.753C314.69 226.807 314.744 226.861 314.798 226.915C314.852 226.969 314.906 227.077 314.906 227.131C314.906 227.239 314.96 227.293 314.906 227.401V234.363C314.906 234.525 314.852 234.687 314.745 234.795C314.637 234.903 314.475 234.957 314.313 234.957C314.259 234.957 314.205 234.957 314.151 234.903ZM314.151 220.925C314.043 220.871 313.935 220.817 313.881 220.709C313.827 220.601 313.773 220.493 313.773 220.385V213.423C313.773 213.315 313.773 213.261 313.773 213.153C313.827 213.046 313.827 212.991 313.935 212.938C313.989 212.884 314.043 212.83 314.151 212.776C314.205 212.722 314.313 212.722 314.421 212.722C314.529 212.722 314.583 212.722 314.691 212.776C314.744 212.83 314.852 212.884 314.906 212.938C314.96 212.991 315.014 213.099 315.014 213.153C315.068 213.261 315.068 213.315 315.068 213.423V220.385C315.068 220.439 315.068 220.547 315.014 220.601C315.014 220.655 314.96 220.763 314.906 220.817C314.852 220.871 314.798 220.925 314.691 220.925C314.637 220.979 314.529 220.979 314.475 220.979C314.421 220.979 314.367 220.979 314.313 220.925H314.151Z" fill="#110580"/>
<path d="M293.697 156H95.9559C93.7971 156 92.0703 157.781 92.0703 159.94V287.737C92.0703 289.896 93.7971 291.677 95.9559 291.677H293.697C295.855 291.677 297.582 289.896 297.582 287.737V159.94C297.636 157.727 295.855 156 293.697 156Z" fill="#91CDF2"/>
<path d="M139.994 183.093H101.839C100.436 183.093 99.248 184.28 99.248 185.683V221.896C99.248 223.353 100.436 224.487 101.839 224.487H139.994C141.397 224.487 142.585 223.299 142.585 221.896V185.683C142.585 184.226 141.397 183.093 139.994 183.093Z" fill="#E2F4FF"/>
<path d="M189.268 183.093H151.112C149.709 183.093 148.521 184.28 148.521 185.683V252.874C148.521 254.331 149.709 255.465 151.112 255.465H189.268C190.671 255.465 191.858 254.277 191.858 252.874V185.683C191.858 184.226 190.725 183.093 189.268 183.093Z" fill="#E2F4FF"/>
<path d="M238.595 183.093H200.493C199.036 183.093 197.902 184.28 197.902 185.683V271.655C197.902 273.112 199.036 274.246 200.493 274.246H238.595C240.052 274.246 241.185 273.058 241.185 271.655V185.683C241.185 184.226 239.998 183.093 238.595 183.093Z" fill="#E2F4FF"/>
<path d="M287.868 183.093H249.766C248.309 183.093 247.176 184.28 247.176 185.683V235.712C247.176 237.169 248.309 238.303 249.766 238.303H287.868C289.325 238.303 290.459 237.115 290.459 235.712V185.683C290.459 184.226 289.325 183.093 287.868 183.093Z" fill="#E2F4FF"/>
<path d="M123.642 186.276H104.429C103.566 186.276 102.81 186.978 102.81 187.895C102.81 188.759 103.512 189.514 104.429 189.514H123.588C124.451 189.514 125.207 188.813 125.207 187.895C125.207 187.032 124.505 186.276 123.642 186.276Z" fill="#4439BF"/>
<path d="M293.697 156H95.9559C94.9305 156 93.9053 156.432 93.2037 157.133C92.4481 157.889 92.0703 158.86 92.0703 159.886V172.892H297.636V159.886C297.636 158.86 297.204 157.835 296.503 157.133C295.747 156.378 294.776 156 293.697 156Z" fill="#398CBF"/>
<path d="M198.928 159.4H190.779C190.239 159.4 189.808 159.832 189.808 160.372V168.575C189.808 169.115 190.239 169.546 190.779 169.546H198.982C199.522 169.546 199.954 169.115 199.954 168.575V160.372C199.9 159.832 199.468 159.4 198.928 159.4Z" fill="#D5D6F0"/>
<path d="M193.801 160.587H191.48C191.21 160.587 190.995 160.803 190.995 161.073V167.927C190.995 168.197 191.21 168.412 191.48 168.412H193.801C194.071 168.412 194.233 168.197 194.233 167.927V161.073C194.233 160.803 194.017 160.587 193.801 160.587Z" fill="#007AC0"/>
<path d="M198.226 160.587H195.906C195.636 160.587 195.42 160.803 195.42 161.073V165.012C195.42 165.282 195.636 165.498 195.906 165.498H198.226C198.496 165.498 198.658 165.282 198.658 165.012V161.073C198.712 160.803 198.496 160.587 198.226 160.587Z" fill="#007AC0"/>
<path d="M136.756 192.753H104.969C103.781 192.753 102.81 193.724 102.81 194.912V215.851C102.81 217.039 103.781 218.01 104.969 218.01H136.756C137.944 218.01 138.915 217.039 138.915 215.851V194.912C138.915 193.724 137.944 192.753 136.756 192.753Z" fill="white"/>
<path d="M168.868 186.33H153.756C152.893 186.33 152.191 187.032 152.191 187.949C152.191 188.813 152.893 189.568 153.756 189.568H168.868C169.731 189.568 170.487 188.867 170.487 187.949C170.487 187.032 169.731 186.33 168.868 186.33Z" fill="#4439BF"/>
<path d="M186.083 192.753H154.296C153.109 192.753 152.137 193.724 152.137 194.912V207.702C152.137 208.889 153.109 209.861 154.296 209.861H186.083C187.271 209.861 188.242 208.889 188.242 207.702V194.912C188.242 193.724 187.271 192.753 186.083 192.753Z" fill="white"/>
<path d="M227.099 186.276H203.03C202.166 186.276 201.464 186.978 201.464 187.895C201.464 188.759 202.166 189.514 203.03 189.514H227.099C227.963 189.514 228.718 188.813 228.718 187.895C228.718 187.032 228.017 186.276 227.099 186.276Z" fill="#4439BF"/>
<path d="M235.411 222.058H203.623C202.436 222.058 201.464 223.029 201.464 224.216V265.556C201.464 266.743 202.436 267.715 203.623 267.715H235.411C236.598 267.715 237.569 266.743 237.569 265.556V224.216C237.569 223.029 236.598 222.058 235.411 222.058Z" fill="white"/>
<path d="M235.411 192.753H203.623C202.436 192.753 201.464 193.724 201.464 194.912V216.661C201.464 217.848 202.436 218.82 203.623 218.82H235.411C236.598 218.82 237.569 217.848 237.569 216.661V194.912C237.569 193.724 236.598 192.753 235.411 192.753Z" fill="white"/>
<path d="M186.353 213.099H154.566C153.379 213.099 152.407 214.07 152.407 215.257V246.829C152.407 248.016 153.379 248.988 154.566 248.988H186.353C187.541 248.988 188.512 248.016 188.512 246.829V215.257C188.512 214.07 187.541 213.099 186.353 213.099Z" fill="white"/>
<path d="M264.23 186.276H252.357C251.493 186.276 250.792 186.978 250.792 187.895C250.792 188.759 251.493 189.514 252.357 189.514H264.23C265.093 189.514 265.849 188.813 265.849 187.895C265.849 187.032 265.093 186.276 264.23 186.276Z" fill="#4439BF"/>
<path d="M284.684 192.753H252.897C251.709 192.753 250.738 193.724 250.738 194.912V209.321C250.738 210.509 251.709 211.48 252.897 211.48H284.684C285.871 211.48 286.843 210.509 286.843 209.321V194.912C286.843 193.724 285.871 192.753 284.684 192.753Z" fill="white"/>
<path d="M284.684 214.718H252.897C251.709 214.718 250.738 215.689 250.738 216.877V229.775C250.738 230.962 251.709 231.934 252.897 231.934H284.684C285.871 231.934 286.843 230.962 286.843 229.775V216.877C286.843 215.689 285.871 214.718 284.684 214.718Z" fill="white"/>
<path d="M122.077 197.34H108.585C107.721 197.34 107.02 198.041 107.02 198.959C107.02 199.822 107.721 200.578 108.585 200.578H122.077C122.94 200.578 123.696 199.876 123.696 198.959C123.696 198.095 122.994 197.34 122.077 197.34Z" fill="#4439BF"/>
<path d="M127.744 204.518H108.585C107.721 204.518 107.02 205.219 107.02 206.137C107.02 207 107.721 207.756 108.585 207.756H127.744C128.607 207.756 129.363 207.054 129.363 206.137C129.363 205.273 128.661 204.518 127.744 204.518Z" fill="#4439BF"/>
<path d="M220.731 244.725H207.239C206.376 244.725 205.674 245.426 205.674 246.344C205.674 247.207 206.376 247.963 207.239 247.963H220.731C221.595 247.963 222.351 247.261 222.351 246.344C222.297 245.426 221.595 244.725 220.731 244.725Z" fill="#4439BF"/>
<path d="M226.398 251.902H207.239C206.376 251.902 205.674 252.604 205.674 253.521C205.674 254.385 206.376 255.14 207.239 255.14H226.398C227.262 255.14 228.017 254.439 228.017 253.521C227.963 252.604 227.262 251.902 226.398 251.902Z" fill="#4439BF"/>
<path d="M217.439 259.079H207.185C206.322 259.079 205.62 259.781 205.62 260.698C205.62 261.562 206.322 262.317 207.185 262.317H217.439C218.357 262.317 219.058 261.616 219.058 260.698C219.058 259.781 218.357 259.079 217.439 259.079Z" fill="#4439BF"/>
<path d="M171.404 218.01H157.912C157.049 218.01 156.347 218.711 156.347 219.629C156.347 220.492 157.049 221.248 157.912 221.248H171.404C172.268 221.248 173.023 220.546 173.023 219.629C173.023 218.711 172.268 218.01 171.404 218.01Z" fill="#E8E8F7"/>
<path d="M181.982 232.365H157.912C157.049 232.365 156.347 233.067 156.347 233.984C156.347 234.848 157.049 235.603 157.912 235.603H181.982C182.846 235.603 183.601 234.902 183.601 233.984C183.547 233.067 182.846 232.365 181.982 232.365Z" fill="#E8E8F7"/>
<path d="M171.404 239.543H157.912C157.049 239.543 156.347 240.245 156.347 241.162C156.347 242.026 157.049 242.781 157.912 242.781H171.404C172.268 242.781 173.023 242.079 173.023 241.162C173.023 240.245 172.268 239.543 171.404 239.543Z" fill="#E8E8F7"/>
<path d="M177.071 225.188H157.912C157.049 225.188 156.347 225.889 156.347 226.807C156.347 227.67 157.049 228.426 157.912 228.426H177.071C177.935 228.426 178.69 227.724 178.69 226.807C178.69 225.889 177.935 225.188 177.071 225.188Z" fill="#E8E8F7"/>
<path d="M220.731 204.518H207.239C206.376 204.518 205.674 205.219 205.674 206.137C205.674 207 206.376 207.756 207.239 207.756H220.731C221.595 207.756 222.351 207.054 222.351 206.137C222.297 205.273 221.595 204.518 220.731 204.518Z" fill="#4439BF"/>
<path d="M231.093 197.34H211.934C211.071 197.34 210.315 198.041 210.315 198.959C210.315 199.822 211.017 200.578 211.934 200.578H231.093C231.957 200.578 232.712 199.876 232.712 198.959C232.658 198.095 231.957 197.34 231.093 197.34Z" fill="#4439BF"/>
<path d="M270.004 204.518H256.512C255.649 204.518 254.947 205.219 254.947 206.137C254.947 207 255.649 207.756 256.512 207.756H270.004C270.868 207.756 271.623 207.054 271.623 206.137C271.623 205.273 270.922 204.518 270.004 204.518Z" fill="#4439BF"/>
<path d="M275.671 197.34H256.512C255.649 197.34 254.947 198.041 254.947 198.959C254.947 199.822 255.649 200.578 256.512 200.578H275.671C276.589 200.578 277.29 199.876 277.29 198.959C277.29 198.095 276.589 197.34 275.671 197.34Z" fill="#4439BF"/>
<path d="M278.747 219.359H261.207C260.344 219.359 259.588 220.061 259.588 220.978C259.588 221.842 260.29 222.597 261.207 222.597H278.747C279.611 222.597 280.366 221.896 280.366 220.978C280.366 220.061 279.665 219.359 278.747 219.359Z" fill="#4439BF"/>
<path d="M177.071 197.34H157.912C157.049 197.34 156.347 198.041 156.347 198.959C156.347 199.822 157.049 200.578 157.912 200.578H177.071C177.935 200.578 178.69 199.876 178.69 198.959C178.69 198.095 177.935 197.34 177.071 197.34Z" fill="#4439BF"/>
<path d="M235.41 222.111H203.623C203.029 222.111 202.49 222.327 202.112 222.759C201.68 223.191 201.518 223.73 201.518 224.27V240.137H237.569V224.216C237.569 223.623 237.299 223.083 236.921 222.705C236.49 222.327 235.95 222.111 235.41 222.111Z" fill="#4439BF"/>
<path d="M207.185 200.524C208.049 200.524 208.75 199.822 208.75 198.959C208.75 198.095 208.049 197.394 207.185 197.394C206.322 197.394 205.62 198.095 205.62 198.959C205.62 199.822 206.322 200.524 207.185 200.524Z" fill="#FF7A82"/>
<path d="M256.512 222.489C257.376 222.489 258.078 221.788 258.078 220.924C258.078 220.061 257.376 219.359 256.512 219.359C255.649 219.359 254.947 220.061 254.947 220.924C254.947 221.788 255.649 222.489 256.512 222.489Z" fill="#FF7A82"/>
<path d="M328.452 282.826H236.436C234.223 282.826 232.442 284.607 232.442 286.874V331.776C232.442 333.988 234.223 335.823 236.436 335.823H328.452C330.665 335.823 332.5 334.042 332.5 331.776V286.874C332.5 284.607 330.665 282.826 328.452 282.826Z" fill="white"/>
<path d="M309.672 298.477H257.16C256.297 298.477 255.595 299.178 255.595 300.096C255.595 300.959 256.297 301.715 257.16 301.715H309.672C310.535 301.715 311.237 301.013 311.237 300.096C311.237 299.178 310.535 298.477 309.672 298.477Z" fill="#4439BF"/>
<path d="M290.189 305.654H257.16C256.297 305.654 255.595 306.356 255.595 307.273C255.595 308.137 256.297 308.892 257.16 308.892H290.135C290.999 308.892 291.754 308.191 291.754 307.273C291.754 306.356 291.053 305.654 290.189 305.654Z" fill="#4439BF"/>
<path d="M259.481 291.299H241.941C241.077 291.299 240.322 292 240.322 292.918C240.322 293.781 241.023 294.537 241.941 294.537H259.481C260.344 294.537 261.1 293.835 261.1 292.918C261.1 292 260.344 291.299 259.481 291.299Z" fill="#4439BF"/>
<path d="M241.995 315.477H252.033V327.242H241.995C241.563 327.242 241.132 327.08 240.808 326.756C240.484 326.432 240.322 326 240.322 325.569V317.15C240.322 316.718 240.484 316.286 240.808 315.962C241.132 315.693 241.563 315.477 241.995 315.477Z" fill="#4439BF" fill-opacity="0.5"/>
<path d="M247.877 321.09H246.528V319.687C246.528 319.633 246.474 319.525 246.42 319.471C246.366 319.417 246.312 319.363 246.204 319.363C246.097 319.363 246.042 319.417 245.988 319.471C245.934 319.525 245.935 319.579 245.935 319.687V321.09H244.531C244.477 321.09 244.37 321.144 244.316 321.198C244.262 321.252 244.208 321.306 244.208 321.414C244.208 321.468 244.262 321.576 244.316 321.63C244.37 321.684 244.423 321.738 244.531 321.738H245.935V323.141C245.935 323.195 245.934 323.303 245.988 323.357C246.042 323.411 246.097 323.465 246.204 323.465C246.258 323.465 246.366 323.411 246.42 323.357C246.474 323.303 246.528 323.249 246.528 323.141V321.738H247.877C247.931 321.738 248.039 321.684 248.093 321.63C248.147 321.576 248.147 321.522 248.147 321.414C248.147 321.36 248.147 321.252 248.093 321.198C248.039 321.09 247.931 321.09 247.877 321.09Z" fill="#AAAAE3"/>
<path d="M249.496 298.477H241.509C240.862 298.477 240.322 299.016 240.322 299.61V307.705C240.322 308.353 240.862 308.838 241.509 308.838H249.55C250.198 308.838 250.738 308.299 250.738 307.705V299.61C250.684 298.962 250.198 298.477 249.496 298.477Z" fill="#FF7A82"/>
<path d="M323.163 316.125C323.379 316.125 323.541 316.233 323.703 316.341C323.865 316.503 323.919 316.665 323.919 316.88V325.839C323.919 326.055 323.865 326.217 323.703 326.379C323.541 326.541 323.379 326.595 323.163 326.595H241.725C241.509 326.595 241.293 326.487 241.185 326.379C241.023 326.217 240.97 326.055 240.97 325.839V316.88C240.97 316.665 241.077 316.503 241.185 316.341C241.347 316.179 241.509 316.125 241.725 316.125H323.163ZM323.163 315.531H241.725C241.347 315.531 241.024 315.693 240.754 315.909C240.484 316.179 240.322 316.503 240.322 316.88V325.839C240.322 326.217 240.484 326.541 240.754 326.811C241.024 327.08 241.347 327.188 241.725 327.188H323.163C323.541 327.188 323.865 327.026 324.135 326.811C324.405 326.541 324.567 326.217 324.567 325.839V316.88C324.567 316.503 324.405 316.179 324.135 315.909C323.865 315.639 323.541 315.531 323.163 315.531Z" fill="#4439BF" fill-opacity="0.5"/>
<path opacity="0.3" d="M209.613 215.42C209.613 214.88 209.505 214.394 209.29 213.908C209.074 213.423 208.804 212.991 208.426 212.613C208.049 212.235 207.617 211.966 207.131 211.75C206.645 211.534 206.16 211.426 205.62 211.426H92.0161V213.045H201.572C202.058 213.045 202.597 213.153 203.083 213.369C203.569 213.585 204.001 213.854 204.379 214.232C204.756 214.61 205.026 215.042 205.188 215.527C205.404 216.013 205.512 216.499 205.512 217.039V291.623H209.559L209.613 215.42Z" fill="#3B3FAD"/>
<path d="M30.1145 227.401C30.0605 227.455 30.0065 227.509 29.9526 227.509C29.7906 227.563 29.6827 227.563 29.5208 227.509C29.3589 227.455 29.251 227.347 29.197 227.185C28.7653 226.159 28.4415 225.026 28.2256 223.947C28.2256 223.893 28.2256 223.785 28.2256 223.731C28.2256 223.677 28.2795 223.569 28.3335 223.515C28.3875 223.461 28.4415 223.407 28.4954 223.353C28.5494 223.299 28.6033 223.299 28.7112 223.245C28.7652 223.245 28.8732 223.245 28.9272 223.245C28.9812 223.245 29.0891 223.299 29.143 223.353C29.197 223.407 29.251 223.461 29.305 223.515C29.3589 223.569 29.3589 223.623 29.4129 223.731C29.6287 224.756 29.8986 225.782 30.3303 226.753C30.3843 226.861 30.3843 226.969 30.3843 227.077C30.2764 227.185 30.2224 227.293 30.1145 227.401Z" fill="#110580"/>
<path d="M115.978 186.33C115.924 186.384 115.87 186.438 115.816 186.438L115.061 186.816C113.334 187.625 111.553 188.489 109.61 189.352C109.502 189.406 109.34 189.406 109.178 189.352C109.016 189.298 108.909 189.19 108.855 189.082C108.801 189.028 108.801 188.921 108.801 188.867C108.801 188.813 108.801 188.705 108.855 188.651C108.855 188.597 108.908 188.543 108.962 188.489C109.016 188.435 109.07 188.381 109.178 188.381C111.067 187.571 112.848 186.654 114.575 185.844L115.331 185.467C115.439 185.413 115.601 185.413 115.708 185.413C115.816 185.467 115.924 185.521 116.032 185.629C116.086 185.736 116.14 185.844 116.14 186.006C116.086 186.114 116.032 186.222 115.978 186.33ZM103.458 191.781C103.404 191.835 103.35 191.889 103.242 191.943C101.083 192.698 98.8703 193.292 96.6037 193.778C96.5497 193.778 96.4418 193.778 96.3878 193.778C96.3339 193.778 96.226 193.724 96.172 193.67C96.118 193.616 96.0639 193.562 96.0099 193.508C95.956 193.454 95.9559 193.4 95.9559 193.292C95.9559 193.238 95.9559 193.13 95.9559 193.076C95.9559 193.022 96.01 192.914 96.064 192.86C96.1179 192.806 96.1718 192.752 96.2258 192.698C96.2797 192.644 96.3339 192.644 96.4418 192.59C98.6546 192.159 100.813 191.565 102.918 190.809C102.972 190.809 103.08 190.756 103.134 190.756C103.242 190.756 103.296 190.755 103.35 190.809C103.404 190.863 103.458 190.863 103.512 190.917C103.565 190.971 103.62 191.025 103.62 191.133C103.674 191.241 103.674 191.349 103.62 191.457C103.62 191.619 103.566 191.673 103.458 191.781ZM90.1814 194.317C90.1275 194.371 90.0734 194.425 90.0194 194.425C89.9654 194.479 89.8575 194.479 89.8036 194.479C87.4829 194.533 85.1624 194.317 82.9497 193.886C82.8958 193.886 82.7876 193.832 82.7336 193.778C82.6797 193.724 82.6258 193.67 82.5718 193.616C82.5179 193.562 82.5178 193.508 82.4638 193.4C82.4638 193.346 82.4638 193.238 82.4638 193.184C82.4638 193.13 82.5178 193.022 82.5178 192.968C82.5718 192.914 82.6259 192.86 82.6799 192.806C82.7339 192.752 82.8417 192.752 82.8957 192.698C82.9497 192.644 83.0576 192.698 83.1115 192.698C85.3242 193.13 87.5368 193.292 89.7495 193.238C89.8035 193.238 89.9117 193.238 89.9656 193.292C90.0196 193.292 90.1275 193.346 90.1814 193.4C90.2354 193.454 90.2892 193.508 90.2892 193.562C90.3432 193.616 90.3433 193.724 90.3433 193.778C90.3433 193.832 90.3433 193.94 90.3433 193.994C90.2893 194.21 90.2354 194.317 90.1814 194.317ZM76.9592 191.781C76.8512 191.889 76.7432 191.943 76.6353 191.943C76.5274 191.943 76.4194 191.943 76.3114 191.889C74.1527 190.971 72.1558 189.838 70.3209 188.489C70.2669 188.435 70.2131 188.381 70.1591 188.327C70.1051 188.273 70.105 188.165 70.051 188.111C70.051 188.057 70.051 187.949 70.051 187.895C70.051 187.841 70.1051 187.733 70.1591 187.679C70.2131 187.625 70.2669 187.571 70.3209 187.517C70.3749 187.463 70.483 187.463 70.537 187.463C70.5909 187.463 70.6988 187.463 70.7528 187.463C70.8068 187.463 70.9146 187.517 70.9686 187.571C72.8035 188.867 74.7463 189.946 76.7971 190.809C76.8511 190.863 76.9052 190.863 76.9592 190.917C77.0131 190.971 77.0669 191.025 77.0669 191.079C77.0669 191.133 77.121 191.241 77.121 191.295C77.121 191.349 77.1209 191.457 77.0669 191.511C77.0669 191.673 77.0131 191.727 76.9592 191.781ZM74.3148 184.117C73.4513 185.035 72.5337 185.898 71.5083 186.654C71.4543 186.708 71.4004 186.762 71.2925 186.762C71.2385 186.762 71.1306 186.816 71.0767 186.762C71.0227 186.762 70.9145 186.708 70.8606 186.708C70.8066 186.654 70.7527 186.6 70.6988 186.546C70.6448 186.492 70.6447 186.438 70.5907 186.33C70.5907 186.276 70.5907 186.168 70.5907 186.114C70.5907 186.06 70.6447 185.952 70.6447 185.898C70.6987 185.844 70.7528 185.79 70.8068 185.736C71.7782 184.981 72.6417 184.171 73.5052 183.308C74.2068 182.606 74.8542 181.797 75.4479 180.987C75.5019 180.933 75.556 180.879 75.61 180.825C75.6639 180.771 75.7718 180.771 75.8258 180.717C75.9337 180.717 75.9876 180.717 76.0416 180.717C76.1495 180.717 76.2034 180.771 76.2574 180.825C76.3114 180.879 76.3655 180.933 76.4195 180.987C76.4735 181.041 76.4735 181.149 76.4735 181.203C76.4735 181.257 76.4735 181.365 76.4735 181.419C76.4735 181.473 76.4194 181.581 76.3655 181.635C75.6639 182.498 75.0164 183.362 74.3148 184.117ZM65.8416 190.27C65.7876 190.324 65.7338 190.378 65.6798 190.378C63.629 191.403 61.5242 192.321 59.4194 193.13C59.3654 193.184 59.2576 193.184 59.2036 193.184C59.1496 193.184 59.0415 193.184 58.9875 193.13C58.9335 193.076 58.8257 193.076 58.8257 193.022C58.7717 192.968 58.7177 192.914 58.7177 192.86C58.6637 192.698 58.6637 192.59 58.7177 192.428C58.7716 192.267 58.8796 192.159 59.0415 192.105C61.578 191.079 63.4669 190.27 65.1939 189.352C65.2478 189.298 65.356 189.298 65.41 189.298C65.4639 189.298 65.5718 189.298 65.6258 189.298C65.6798 189.298 65.7876 189.352 65.8416 189.406C65.8956 189.46 65.9494 189.514 66.0034 189.568C66.0574 189.676 66.0574 189.784 66.0574 189.892C65.9495 190.054 65.8956 190.162 65.8416 190.27ZM79.2797 175.644C79.2257 175.698 79.1178 175.752 79.0099 175.806C78.9019 175.86 78.7939 175.86 78.686 175.806C78.5241 175.752 78.4164 175.644 78.3624 175.536C78.3084 175.428 78.2544 175.267 78.3084 175.105C78.6322 173.971 78.7401 172.838 78.794 171.651C78.794 170.625 78.686 169.6 78.4162 168.628C78.4162 168.574 78.4162 168.466 78.4162 168.412C78.4162 168.359 78.4702 168.251 78.4702 168.197C78.5242 168.143 78.5783 168.089 78.6322 168.035C78.6862 167.981 78.7401 167.981 78.8481 167.927C79.01 167.873 79.1718 167.927 79.2797 167.981C79.4416 168.035 79.4956 168.197 79.5495 168.305C79.8734 169.384 79.9815 170.517 79.9815 171.651C79.9275 172.892 79.7656 174.133 79.4418 175.374C79.3878 175.482 79.3337 175.59 79.2797 175.644ZM66.1114 183.794C66.0035 183.901 65.9495 183.955 65.8416 183.955C65.7876 183.955 65.6798 184.009 65.6258 183.955C65.5718 183.955 65.4639 183.901 65.41 183.901C65.356 183.847 65.3019 183.794 65.2479 183.74C63.7368 181.959 62.5495 179.908 61.7399 177.695C61.686 177.533 61.686 177.425 61.7399 177.263C61.7939 177.155 61.9019 177.048 62.0638 176.994C62.2257 176.94 62.3875 176.94 62.4955 176.994C62.6034 177.048 62.7113 177.155 62.7653 177.317C63.5209 179.422 64.6542 181.311 66.0574 183.038C66.1654 183.146 66.2195 183.254 66.2195 183.416C66.2195 183.578 66.1654 183.686 66.1114 183.794ZM53.213 195.397C53.1591 195.451 53.1051 195.505 52.9972 195.505L50.7844 196.368C49.3813 196.962 48.0321 197.556 46.7908 198.149C46.7369 198.203 46.6827 198.203 46.5747 198.203C46.5208 198.203 46.4129 198.203 46.3589 198.149C46.305 198.149 46.2511 198.095 46.1971 198.041C46.1432 197.987 46.089 197.933 46.0351 197.879C46.0351 197.825 45.9813 197.717 45.9813 197.663C45.9813 197.609 45.9811 197.502 46.0351 197.448C46.0351 197.394 46.0891 197.34 46.1431 197.232C46.1971 197.178 46.2509 197.124 46.3049 197.124C47.6001 196.53 48.8954 195.936 50.3525 195.343C51.1081 195.019 51.8638 194.749 52.6193 194.479C52.6733 194.479 52.7812 194.425 52.8351 194.425C52.8891 194.425 52.997 194.425 53.051 194.479C53.1049 194.533 53.213 194.533 53.213 194.587C53.267 194.641 53.3208 194.695 53.3208 194.749C53.3748 194.857 53.3748 194.965 53.3748 195.073C53.3748 195.181 53.321 195.289 53.213 195.397ZM29.305 217.416C29.251 217.47 29.143 217.524 29.089 217.578C28.9811 217.632 28.9271 217.632 28.8192 217.578C28.6573 217.524 28.5493 217.47 28.4414 217.362C28.3335 217.254 28.3335 217.092 28.3335 216.93C28.8192 214.664 29.6287 212.451 30.7621 210.4C30.816 210.292 30.978 210.184 31.0859 210.184C31.2478 210.13 31.3558 210.184 31.4637 210.238C31.5716 210.292 31.6794 210.4 31.7334 210.562C31.7874 210.67 31.7874 210.832 31.7334 210.994C30.654 212.937 29.8446 215.041 29.4129 217.254C29.4129 217.308 29.3589 217.362 29.305 217.416ZM41.0701 201.387L40.9621 201.495C39.0732 202.736 37.3463 204.14 35.7273 205.705C35.6193 205.813 35.4573 205.867 35.2954 205.867C35.1335 205.867 34.9717 205.813 34.8637 205.705C34.7558 205.597 34.7017 205.435 34.7017 205.273C34.7017 205.111 34.7558 204.949 34.8637 204.841C36.4828 203.222 38.3177 201.765 40.2066 200.47C40.2605 200.416 40.3145 200.416 40.4224 200.362C40.5303 200.308 40.5842 200.362 40.6382 200.362C40.6922 200.362 40.8003 200.416 40.8543 200.47C40.9083 200.524 40.9621 200.578 41.0161 200.632C41.0701 200.74 41.1241 200.848 41.1241 201.01C41.1781 201.117 41.1241 201.279 41.0701 201.387ZM75.8798 163.124C75.8258 163.178 75.7717 163.232 75.7177 163.232C75.6638 163.286 75.5559 163.285 75.5019 163.285C75.4479 163.285 75.3401 163.286 75.2861 163.232C75.2321 163.178 75.1242 163.178 75.0703 163.124C73.775 161.936 72.0479 161.235 70.3209 161.235C69.9431 161.235 69.6193 161.289 69.2415 161.343C69.0796 161.343 68.9718 161.343 68.8639 161.235C68.756 161.127 68.6481 161.019 68.6481 160.911C68.6481 160.749 68.6479 160.641 68.7559 160.479C68.8638 160.371 68.9718 160.263 69.1337 160.263C69.5655 160.209 69.9432 160.155 70.3749 160.155C72.4257 160.155 74.3687 160.911 75.8798 162.314C75.9338 162.368 75.9876 162.422 76.0416 162.476C76.0956 162.53 76.0956 162.638 76.0956 162.692C76.0956 162.746 76.0956 162.854 76.0956 162.908C75.9877 163.016 75.9877 163.07 75.8798 163.124ZM61.7399 171.219C61.686 171.327 61.578 171.381 61.4161 171.381C61.3081 171.381 61.2004 171.381 61.0925 171.327C60.9845 171.273 60.8766 171.219 60.8226 171.111C60.7687 171.003 60.7146 170.895 60.7686 170.787C61.0385 168.413 61.848 166.146 63.1972 164.203C63.2512 164.149 63.305 164.095 63.359 164.041C63.413 163.987 63.5209 163.987 63.5748 163.933C63.6288 163.933 63.7369 163.933 63.7909 163.933C63.8449 163.933 63.9528 163.987 64.0067 164.041C64.0607 164.095 64.1146 164.149 64.1685 164.203C64.2225 164.257 64.2225 164.365 64.2225 164.419C64.2225 164.473 64.2225 164.581 64.2225 164.635C64.2225 164.689 64.1685 164.797 64.1145 164.851C62.8732 166.632 62.0639 168.736 61.848 170.895C61.902 171.003 61.8479 171.165 61.7399 171.219Z" fill="#110580"/>
<path d="M125.422 182.823C125.315 182.931 125.207 182.985 125.045 182.985C124.019 183.093 122.994 183.363 121.969 183.74C121.861 183.794 121.699 183.794 121.537 183.686C121.375 183.632 121.321 183.524 121.267 183.363C121.213 183.201 121.213 183.093 121.267 182.931C121.321 182.823 121.429 182.715 121.591 182.661C122.67 182.229 123.803 181.959 124.937 181.852C124.991 181.852 125.099 181.852 125.153 181.852C125.207 181.852 125.261 181.906 125.315 181.959C125.369 182.013 125.423 182.067 125.476 182.121C125.53 182.175 125.53 182.283 125.53 182.337C125.53 182.445 125.53 182.499 125.53 182.553C125.53 182.661 125.476 182.715 125.422 182.823Z" fill="#110580"/>
<path d="M201.626 213.153H3.88571C1.72697 213.153 0 214.934 0 217.093V344.89C0 347.049 1.72697 348.83 3.88571 348.83H201.626C203.785 348.83 205.512 347.049 205.512 344.89V217.093C205.512 214.88 203.785 213.153 201.626 213.153Z" fill="white"/>
<path d="M149.061 247.368H91.8542C90.505 247.368 89.3716 248.502 89.3716 249.851V277.321C89.3716 278.724 90.505 279.803 91.8542 279.803H149.061C150.41 279.803 151.543 278.67 151.543 277.321V249.851C151.543 248.448 150.41 247.368 149.061 247.368Z" fill="#E2F4FF"/>
<path d="M197.471 267.499H167.68C166.817 267.499 166.061 268.201 166.061 269.118V291.299C166.061 292.217 166.763 292.918 167.68 292.918H197.471C198.388 292.918 199.09 292.217 199.09 291.299V269.118C199.09 268.201 198.388 267.499 197.471 267.499Z" fill="#E2F4FF"/>
<path d="M3.93973 348.775H17.8096V213.099H3.93973C3.40004 213.099 2.9143 213.207 2.42858 213.422C1.94287 213.638 1.51117 213.908 1.13339 214.286C0.755612 214.664 0.485717 215.096 0.269843 215.581C0.0539685 216.067 0 216.553 0 217.092V344.89C0 345.915 0.431801 346.941 1.13339 347.642C1.88895 348.344 2.86036 348.775 3.93973 348.775Z" fill="#398CBF"/>
<path d="M66.4893 213.153H17.8096V348.776H66.4893V213.153Z" fill="#91CDF2"/>
<path d="M12.8983 223.73H4.85702C4.2094 223.73 3.72363 224.27 3.72363 224.864V232.959C3.72363 233.607 4.26337 234.092 4.85702 234.092H12.8983C13.5459 234.092 14.0317 233.553 14.0317 232.959V224.864C14.0856 224.27 13.5459 223.73 12.8983 223.73Z" fill="#FF7A82"/>
<path d="M85.1746 230.854H77.1334C76.4858 230.854 76 231.394 76 231.988V240.083C76 240.731 76.4858 241.217 77.1334 241.217H85.1746C85.8223 241.217 86.308 240.677 86.308 240.083V231.988C86.308 231.34 85.8223 230.854 85.1746 230.854Z" fill="#398CBF"/>
<path d="M12.8983 239.382H4.85702C4.2094 239.382 3.72363 239.922 3.72363 240.515V248.611C3.72363 249.258 4.26337 249.744 4.85702 249.744H12.8983C13.5459 249.744 14.0317 249.204 14.0317 248.611V240.515C14.0856 239.922 13.5459 239.382 12.8983 239.382Z" fill="#91CDF2"/>
<path d="M12.8983 255.68C13.0602 255.68 13.1682 255.734 13.2762 255.842C13.3841 255.95 13.438 256.058 13.438 256.22V264.315C13.438 264.477 13.3841 264.585 13.2762 264.693C13.1682 264.801 13.0602 264.855 12.8983 264.855H4.91105C4.74914 264.855 4.6411 264.801 4.53316 264.693C4.42522 264.585 4.37136 264.477 4.37136 264.315V256.22C4.37136 256.058 4.42522 255.95 4.53316 255.842C4.6411 255.734 4.74914 255.68 4.91105 255.68H12.8983ZM12.8983 255.087H4.85702C4.53321 255.087 4.26337 255.195 4.0475 255.411C3.83162 255.627 3.72363 255.896 3.72363 256.22V264.315C3.72363 264.639 3.83162 264.909 4.0475 265.125C4.26337 265.341 4.53321 265.449 4.85702 265.449H12.8983C13.2221 265.449 13.4919 265.341 13.7078 265.125C13.9237 264.909 14.0317 264.639 14.0317 264.315V256.22C14.0317 255.896 13.9237 255.627 13.7078 255.411C13.5459 255.195 13.2221 255.087 12.8983 255.087Z" fill="white"/>
<path d="M8.90483 258.324C8.85086 258.324 8.74298 258.378 8.68901 258.432C8.63504 258.486 8.58097 258.54 8.58097 258.648V260.051H7.17787C7.1239 260.051 7.01588 260.105 6.96191 260.159C6.90795 260.213 6.854 260.267 6.854 260.375C6.854 260.429 6.90795 260.537 6.96191 260.591C7.01588 260.645 7.06993 260.699 7.17787 260.699H8.58097V262.102C8.58097 262.156 8.63504 262.264 8.68901 262.318C8.74298 262.372 8.7969 262.426 8.90483 262.426C8.9588 262.426 9.06669 262.372 9.12065 262.318C9.17462 262.264 9.2287 262.21 9.2287 262.102V260.699H10.6318C10.6858 260.699 10.7938 260.645 10.8478 260.591C10.9017 260.537 10.9557 260.483 10.9557 260.375C10.9557 260.321 10.9017 260.213 10.8478 260.159C10.7938 260.105 10.7397 260.051 10.6318 260.051H9.2287V258.648C9.2287 258.594 9.2287 258.594 9.2287 258.54C9.2287 258.486 9.17468 258.486 9.17468 258.432C9.17468 258.432 9.12073 258.378 9.06677 258.378C9.0128 258.378 8.90483 258.324 8.90483 258.324Z" fill="#E8E8F7"/>
<path d="M51.1084 241.055H24.6098C23.7463 241.055 22.9907 241.756 22.9907 242.674C22.9907 243.537 23.6923 244.293 24.6098 244.293H51.1084C51.9719 244.293 52.7274 243.591 52.7274 242.674C52.7274 241.756 52.0258 241.055 51.1084 241.055Z" fill="#4439BF"/>
<path d="M42.2036 223.73H24.6098C23.7463 223.73 22.9907 224.432 22.9907 225.35C22.9907 226.213 23.6923 226.969 24.6098 226.969H42.2036C43.0671 226.969 43.8226 226.267 43.8226 225.35C43.7686 224.432 43.0671 223.73 42.2036 223.73Z" fill="white"/>
<path d="M44.5781 248.556H24.6098C23.7463 248.556 22.9907 249.257 22.9907 250.175C22.9907 251.038 23.6923 251.794 24.6098 251.794H44.5781C45.4416 251.794 46.1432 251.092 46.1432 250.175C46.1971 249.257 45.4956 248.556 44.5781 248.556Z" fill="#5CA8D8"/>
<path d="M135.299 230.854H90.9369C90.0734 230.854 89.3179 231.556 89.3179 232.474C89.3179 233.337 90.0195 234.093 90.9369 234.093H135.299C136.163 234.093 136.864 233.391 136.864 232.474C136.864 231.556 136.163 230.854 135.299 230.854Z" fill="#4439BF"/>
<path d="M119 237.979H90.8827C90.0192 237.979 89.2637 238.68 89.2637 239.598C89.2637 240.461 89.9653 241.217 90.8827 241.217H119C119.864 241.217 120.619 240.515 120.619 239.598C120.619 238.734 119.918 237.979 119 237.979Z" fill="#4439BF"/>
<path d="M85.1746 289.464H77.1334C76.4858 289.464 76 290.004 76 290.651V298.746C76 299.394 76.4858 299.88 77.1334 299.88H85.1746C85.8223 299.88 86.308 299.34 86.308 298.746V290.651C86.308 290.004 85.8223 289.464 85.1746 289.464Z" fill="#398CBF"/>
<path d="M171.782 297.667H166.817C166.385 297.667 166.115 297.991 166.115 298.369V303.334C166.115 303.711 166.439 304.035 166.817 304.035H171.782C172.16 304.035 172.484 303.711 172.484 303.334V298.369C172.484 297.991 172.214 297.667 171.782 297.667Z" fill="#398CBF"/>
<path d="M171.782 228.426H166.817C166.385 228.426 166.115 228.75 166.115 229.127V234.092C166.115 234.47 166.439 234.794 166.817 234.794H171.782C172.16 234.794 172.484 234.47 172.484 234.092V229.127C172.484 228.75 172.214 228.426 171.782 228.426Z" fill="#FF7A82"/>
<path d="M143.394 289.464H90.8827C90.0192 289.464 89.2637 290.165 89.2637 291.083C89.2637 291.946 89.9653 292.702 90.8827 292.702H143.394C144.258 292.702 144.959 292 144.959 291.083C145.013 290.219 144.312 289.464 143.394 289.464Z" fill="#4439BF"/>
<path d="M127.15 296.643H90.8827C90.0192 296.643 89.2637 297.344 89.2637 298.262C89.2637 299.125 89.9653 299.881 90.8827 299.881H127.15C128.013 299.881 128.769 299.179 128.769 298.262C128.769 297.344 128.013 296.643 127.15 296.643Z" fill="#4439BF"/>
<path d="M135.299 303.82H90.9369C90.0734 303.82 89.3179 304.522 89.3179 305.439C89.3179 306.303 90.0195 307.058 90.9369 307.058H135.299C136.163 307.058 136.864 306.357 136.864 305.439C136.864 304.522 136.163 303.82 135.299 303.82Z" fill="#4439BF"/>
<path d="M143.394 310.998H90.8827C90.0192 310.998 89.2637 311.7 89.2637 312.617C89.2637 313.481 89.9653 314.236 90.8827 314.236H143.394C144.258 314.236 144.959 313.535 144.959 312.617C145.013 311.7 144.312 310.998 143.394 310.998Z" fill="#4439BF"/>
<path d="M195.852 238.087H167.734C166.871 238.087 166.115 238.789 166.115 239.706C166.115 240.569 166.817 241.325 167.734 241.325H195.852C196.715 241.325 197.471 240.623 197.471 239.706C197.417 238.789 196.715 238.087 195.852 238.087Z" fill="#4439BF"/>
<path d="M187.703 245.21H167.734C166.871 245.21 166.115 245.912 166.115 246.829C166.115 247.693 166.817 248.448 167.734 248.448H187.703C188.566 248.448 189.322 247.746 189.322 246.829C189.322 245.966 188.566 245.21 187.703 245.21Z" fill="#4439BF"/>
<path d="M192.614 252.388H167.734C166.871 252.388 166.115 253.089 166.115 254.007C166.115 254.87 166.817 255.626 167.734 255.626H192.614C193.477 255.626 194.179 254.924 194.179 254.007C194.179 253.143 193.477 252.388 192.614 252.388Z" fill="#4439BF"/>
<path d="M179.553 259.565H167.68C166.817 259.565 166.061 260.267 166.061 261.184C166.061 262.048 166.763 262.804 167.68 262.804H179.553C180.417 262.804 181.172 262.102 181.172 261.184C181.172 260.321 180.471 259.565 179.553 259.565Z" fill="#4439BF"/>
<path d="M187.703 307.651H167.734C166.871 307.651 166.115 308.353 166.115 309.27C166.115 310.134 166.817 310.889 167.734 310.889H187.703C188.566 310.889 189.322 310.188 189.322 309.27C189.322 308.407 188.566 307.651 187.703 307.651Z" fill="#4439BF"/>
<path d="M195.852 314.829H167.734C166.871 314.829 166.115 315.531 166.115 316.448C166.115 317.312 166.817 318.067 167.734 318.067H195.852C196.715 318.067 197.471 317.366 197.471 316.448C197.417 315.585 196.715 314.829 195.852 314.829Z" fill="#4439BF"/>
<path d="M119 318.176H90.8827C90.0192 318.176 89.2637 318.877 89.2637 319.795C89.2637 320.658 89.9653 321.414 90.8827 321.414H119C119.864 321.414 120.619 320.712 120.619 319.795C120.619 318.877 119.918 318.176 119 318.176Z" fill="#4439BF"/>
<path d="M44.5781 256.058H24.6098C23.7463 256.058 22.9907 256.759 22.9907 257.677C22.9907 258.54 23.6923 259.296 24.6098 259.296H44.5781C45.4416 259.296 46.1432 258.594 46.1432 257.677C46.1971 256.813 45.4956 256.058 44.5781 256.058Z" fill="#5CA8D8"/>
<path d="M44.5781 263.613H24.6098C23.7463 263.613 22.9907 264.315 22.9907 265.232C22.9907 266.096 23.6923 266.851 24.6098 266.851H44.5781C45.4416 266.851 46.1432 266.15 46.1432 265.232C46.1971 264.315 45.4956 263.613 44.5781 263.613Z" fill="#5CA8D8"/>
<path d="M54.4002 283.203H24.6098C23.7463 283.203 22.9907 283.905 22.9907 284.822C22.9907 285.686 23.6923 286.441 24.6098 286.441H54.4002C55.2637 286.441 55.9655 285.74 55.9655 284.822C55.9655 283.959 55.2637 283.203 54.4002 283.203Z" fill="#4439BF"/>
<path d="M44.5781 290.759H24.6098C23.7463 290.759 22.9907 291.46 22.9907 292.378C22.9907 293.241 23.6923 293.997 24.6098 293.997H44.5781C45.4416 293.997 46.1432 293.295 46.1432 292.378C46.1971 291.46 45.4956 290.759 44.5781 290.759Z" fill="#5CA8D8"/>
<path d="M54.4002 318.122H24.6098C23.7463 318.122 22.9907 318.824 22.9907 319.741C22.9907 320.605 23.6923 321.36 24.6098 321.36H54.4002C55.2637 321.36 55.9655 320.659 55.9655 319.741C55.9655 318.878 55.2637 318.122 54.4002 318.122Z" fill="#4439BF"/>
<path d="M44.5781 325.678H24.6098C23.7463 325.678 22.9907 326.379 22.9907 327.297C22.9907 328.16 23.6923 328.916 24.6098 328.916H44.5781C45.4416 328.916 46.1432 328.214 46.1432 327.297C46.1971 326.379 45.4956 325.678 44.5781 325.678Z" fill="#5CA8D8"/>
<path d="M44.5781 298.262H24.6098C23.7463 298.262 22.9907 298.963 22.9907 299.881C22.9907 300.744 23.6923 301.5 24.6098 301.5H44.5781C45.4416 301.5 46.1432 300.798 46.1432 299.881C46.1971 298.963 45.4956 298.262 44.5781 298.262Z" fill="#5CA8D8"/>
<path d="M61.1461 286.441C62.0096 286.441 62.7651 285.74 62.7651 284.822C62.7651 283.905 62.0636 283.203 61.1461 283.203C60.2286 283.203 59.5811 283.905 59.5811 284.822C59.5811 285.74 60.2826 286.441 61.1461 286.441Z" fill="#FF7A82"/>
<path d="M160.664 217.309C160.664 217.201 160.556 217.093 160.448 217.093C160.34 217.093 160.232 217.201 160.232 217.309V344.566C160.232 344.674 160.34 344.782 160.448 344.782C160.556 344.782 160.664 344.674 160.664 344.566V217.309Z" fill="#4439BF" fill-opacity="0.5"/>
<path d="M150.734 329.887C150.842 329.887 150.95 329.887 151.058 329.941C151.166 329.995 151.22 330.049 151.328 330.102C151.382 330.156 151.49 330.264 151.49 330.372C151.544 330.48 151.543 330.588 151.543 330.696V339.655C151.543 339.763 151.544 339.871 151.49 339.925C151.436 340.033 151.382 340.087 151.328 340.195C151.274 340.249 151.166 340.303 151.058 340.357C150.95 340.41 150.842 340.41 150.734 340.41H76.0416C75.8257 340.41 75.6098 340.303 75.5019 340.195C75.34 340.033 75.2861 339.871 75.2861 339.655V330.75C75.2861 330.642 75.2861 330.534 75.3401 330.426C75.3941 330.318 75.4479 330.264 75.5019 330.156C75.5559 330.102 75.6638 329.995 75.7718 329.995C75.8797 329.941 75.9877 329.941 76.0956 329.941H150.734V329.887ZM150.734 329.293H76.0416C75.8257 329.293 75.6638 329.347 75.5019 329.401C75.34 329.455 75.1782 329.563 75.0703 329.725C74.9623 329.833 74.8544 329.994 74.8004 330.156C74.7465 330.318 74.6924 330.48 74.6924 330.696V339.655C74.6924 339.817 74.7465 340.033 74.8004 340.195C74.8544 340.356 74.9623 340.518 75.0703 340.626C75.2322 340.734 75.34 340.842 75.5019 340.95C75.6638 341.004 75.8257 341.058 76.0416 341.058H150.734C151.112 341.058 151.436 340.896 151.706 340.626C151.975 340.357 152.137 340.033 152.137 339.655V330.696C152.137 330.318 151.975 329.995 151.706 329.725C151.49 329.455 151.112 329.293 150.734 329.293Z" fill="#4439BF" fill-opacity="0.5"/>
<path d="M197.741 324.975C197.957 324.975 198.173 325.083 198.281 325.245C198.442 325.407 198.496 325.623 198.496 325.785V334.743C198.496 334.959 198.388 335.121 198.281 335.283C198.119 335.445 197.957 335.499 197.741 335.499H167.518C167.303 335.499 167.141 335.391 166.979 335.283C166.817 335.121 166.763 334.959 166.709 334.743V325.731C166.709 325.515 166.817 325.299 166.925 325.191C167.087 325.029 167.249 324.921 167.464 324.921H197.687V324.975H197.741ZM197.741 324.273H167.518C167.141 324.273 166.817 324.435 166.547 324.705C166.277 324.975 166.115 325.299 166.115 325.677V334.635C166.115 335.013 166.277 335.337 166.547 335.607C166.817 335.877 167.141 336.039 167.518 336.039H197.741C198.119 336.039 198.443 335.877 198.712 335.607C198.982 335.337 199.144 335.013 199.144 334.635V325.677C199.144 325.299 198.982 324.975 198.712 324.705C198.443 324.489 198.119 324.327 197.741 324.273Z" fill="#4439BF" fill-opacity="0.5"/>
</svg>
