<svg width="19" height="19" viewBox="0 0 19 19" fill="none" xmlns="http://www.w3.org/2000/svg">
<g clip-path="url(#clip0)">
<path d="M10.0835 18.857C9.69361 18.857 9.30394 18.857 8.91403 18.857C8.87325 18.8469 8.83318 18.8338 8.79169 18.8276C8.36481 18.7654 7.93365 18.7241 7.5113 18.6395C3.88382 17.9139 0.880905 14.7976 0.288765 11.1517C0.231292 10.7985 0.190989 10.4427 0.142578 10.0879C0.142578 9.6983 0.142578 9.30844 0.142578 8.91881C0.153071 8.86587 0.16571 8.81341 0.173819 8.76C0.247985 8.28596 0.288527 7.80381 0.399657 7.33859C1.79141 1.5192 8.2141 -1.58567 13.6886 1.14197C17.5665 3.07414 19.5602 7.33335 18.6301 11.5627C17.8276 15.2122 14.7958 18.0977 11.1109 18.7153C10.7701 18.7723 10.426 18.8102 10.0835 18.857ZM17.6852 9.50277C17.6845 4.99581 14.0179 1.32677 9.50736 1.31914C4.99632 1.31151 1.31207 4.99128 1.31231 9.50373C1.31255 14.0088 4.98058 17.6797 9.48995 17.6876C14.0005 17.6955 17.686 14.015 17.6852 9.50277Z" fill="#C4C4C4"/>
<path d="M10.0938 18.999H8.89736L8.88067 18.995C8.8666 18.9917 8.85277 18.9878 8.8387 18.984C8.81437 18.9773 8.79148 18.9711 8.77169 18.9683C8.63289 18.948 8.49076 18.9297 8.3534 18.9118C8.06794 18.8748 7.77246 18.8367 7.48367 18.7787C5.70152 18.422 3.98806 17.4668 2.65926 16.0888C1.33094 14.7115 0.439276 12.9658 0.148095 11.1736C0.108507 10.9301 0.0765513 10.6826 0.0455492 10.4432C0.0310021 10.3309 0.016455 10.2186 0.00119239 10.1065L0 10.0967V8.90376L0.00286173 8.88993C0.00620042 8.87252 0.0100161 8.85535 0.0135932 8.83818C0.020986 8.80289 0.0281404 8.76975 0.0331484 8.73732C0.0567577 8.58662 0.0772668 8.43162 0.0970604 8.28188C0.139748 7.96021 0.183866 7.62757 0.261133 7.3047C0.941271 4.46046 2.84599 2.12198 5.48737 0.888471C8.11706 -0.339551 11.1298 -0.294007 13.753 1.01294C14.7198 1.49461 15.5869 2.12603 16.3307 2.88979C17.0554 3.63399 17.6481 4.48836 18.0923 5.42881C18.5357 6.36735 18.8204 7.36861 18.9385 8.40468C19.0591 9.46412 19.0026 10.5367 18.7703 11.5925C18.3704 13.4114 17.4299 15.0665 16.0505 16.3787C14.6709 17.6914 12.971 18.5477 11.135 18.8555C10.8996 18.8948 10.6602 18.9256 10.4286 18.9554C10.3201 18.9692 10.2119 18.9833 10.1036 18.9981L10.0938 18.999ZM8.93242 18.7129H10.0743C10.1801 18.6986 10.286 18.685 10.3921 18.6714C10.6211 18.6421 10.8576 18.6118 11.0875 18.5732C14.7234 17.9639 17.6984 15.134 18.4906 11.531C19.4052 7.37171 17.4046 3.15185 13.6252 1.26904C11.0806 0.00119524 8.15856 -0.0429182 5.60852 1.14767C3.04679 2.34397 1.19907 4.61236 0.539437 7.37099C0.465747 7.67955 0.422344 8.0048 0.38061 8.31931C0.360578 8.47073 0.339831 8.62715 0.315744 8.78119C0.309544 8.82125 0.301436 8.85988 0.293328 8.89732C0.290943 8.909 0.288319 8.92069 0.285935 8.93237V10.0776C0.300959 10.1873 0.315029 10.297 0.329099 10.4067C0.359863 10.644 0.391342 10.8891 0.430214 11.128C1.009 14.69 3.99903 17.7899 7.53995 18.4985C7.81921 18.5543 8.10943 18.592 8.39012 18.6283C8.52868 18.6461 8.67176 18.6647 8.81294 18.6852C8.84967 18.6905 8.88353 18.6998 8.91334 18.7079C8.91978 18.7096 8.92598 18.7112 8.93242 18.7129ZM9.50524 17.8297C9.50023 17.8297 9.49523 17.8297 9.49022 17.8297C4.90262 17.8216 1.16997 14.0862 1.16973 9.50274C1.16973 8.38036 1.39104 7.29016 1.82745 6.26244C2.24884 5.27024 2.85148 4.37891 3.61866 3.61301C4.3856 2.84758 5.27727 2.24669 6.26934 1.82725C7.29265 1.39446 8.37748 1.17509 9.4938 1.17509C9.49857 1.17509 9.5031 1.17509 9.5081 1.17509C14.0955 1.18272 17.8284 4.91805 17.8291 9.50179C17.8293 10.6242 17.608 11.7144 17.1713 12.7421C16.75 13.7343 16.1471 14.6259 15.3799 15.3918C14.613 16.1574 13.7211 16.7583 12.7292 17.1778C11.7059 17.6103 10.6213 17.8297 9.50524 17.8297ZM9.4938 1.46123C7.35608 1.46123 5.3419 2.297 3.82089 3.81545C2.29559 5.3382 1.45567 7.35788 1.45591 9.50274C1.45614 13.9286 5.06073 17.5357 9.49093 17.5435C9.4957 17.5435 9.50071 17.5435 9.50548 17.5435C11.6427 17.5435 13.6564 16.7078 15.1777 15.1893C16.7032 13.6663 17.5431 11.6464 17.5429 9.50179C17.5419 5.07567 13.9376 1.46862 9.50763 1.46123C9.5031 1.46123 9.49833 1.46123 9.4938 1.46123Z" fill="#C4C4C4"/>
<path d="M10.0843 14.1186C10.0843 14.3437 10.0879 14.5504 10.0836 14.7572C10.0762 15.0972 9.81861 15.3526 9.49309 15.349C9.17567 15.3454 8.9236 15.0919 8.91621 14.7619C8.91144 14.5495 8.91525 14.3368 8.91525 14.1708C8.58091 13.9991 8.25205 13.8747 7.97374 13.6786C7.26809 13.1817 6.90632 12.4804 6.87126 11.6172C6.85624 11.2448 7.09734 10.9753 7.43574 10.966C7.77438 10.9567 8.02311 11.2114 8.03861 11.5836C8.07319 12.4189 8.74951 13.046 9.57584 13.0091C10.3681 12.9738 10.9881 12.2911 10.9597 11.4861C10.9328 10.7221 10.3027 10.1107 9.52147 10.0888C8.41636 10.0578 7.596 9.55679 7.11785 8.56078C6.42006 7.10766 7.23017 5.36578 8.78242 4.93156C8.8232 4.92011 8.86279 4.90414 8.91502 4.88601C8.91502 4.68142 8.91287 4.47492 8.91549 4.26843C8.92026 3.91337 9.17138 3.65513 9.50525 3.65823C9.82982 3.66133 10.0781 3.91838 10.0836 4.26247C10.0869 4.46896 10.0843 4.67546 10.0843 4.88935C10.5856 5.01812 11.0201 5.25084 11.3759 5.61853C11.8535 6.11213 12.1056 6.70349 12.1285 7.38951C12.1409 7.76054 11.901 8.03213 11.5638 8.04191C11.2254 8.05169 10.9762 7.79631 10.9607 7.42432C10.9261 6.58808 10.2524 5.96334 9.42369 5.99886C8.62598 6.0332 8.00236 6.72733 8.04004 7.53973C8.0751 8.29419 8.70396 8.90129 9.47735 8.91822C10.4601 8.93992 11.2294 9.35387 11.7455 10.1884C12.6439 11.6408 11.9058 13.5625 10.271 14.0649C10.2133 14.0821 10.1549 14.0981 10.0843 14.1186Z" fill="#C4C4C4"/>
<path d="M9.49909 15.4921C9.49646 15.4921 9.4936 15.4921 9.49098 15.4921C9.09725 15.4878 8.78174 15.1685 8.77268 14.765C8.76934 14.6127 8.7703 14.4605 8.77101 14.3265C8.77125 14.3034 8.77125 14.2807 8.77149 14.2586C8.69279 14.2197 8.61409 14.1825 8.53731 14.1463C8.30765 14.038 8.09088 13.9359 7.89103 13.7953C7.15676 13.2783 6.76542 12.5472 6.72798 11.6227C6.71891 11.3976 6.78998 11.1921 6.92806 11.044C7.05636 10.9067 7.23522 10.828 7.43149 10.8225C7.43888 10.8223 7.44603 10.8223 7.45343 10.8223C7.85836 10.8223 8.16313 11.1363 8.18126 11.5774C8.19652 11.9461 8.34962 12.2818 8.61243 12.5231C8.87094 12.7604 9.21053 12.882 9.5692 12.866C10.2827 12.8341 10.8422 12.2172 10.8164 11.4909C10.7921 10.8046 10.2214 10.2514 9.51721 10.2316C8.33603 10.1985 7.48538 9.65695 6.98863 8.62255C6.64117 7.89909 6.63378 7.05998 6.9686 6.32078C7.30819 5.57086 7.95518 5.01431 8.74383 4.79375C8.75289 4.79136 8.76219 4.78826 8.77173 4.78492C8.77173 4.75512 8.77149 4.72531 8.77149 4.69527C8.77101 4.55506 8.77054 4.40984 8.77244 4.26629C8.77817 3.83398 9.09296 3.51064 9.50672 3.51493C9.91046 3.51875 10.22 3.83899 10.2269 4.25986C10.2293 4.40316 10.2286 4.5429 10.2281 4.69074C10.2281 4.7203 10.2279 4.75011 10.2279 4.77992C10.7294 4.92585 11.1396 5.16811 11.4789 5.51864C11.9809 6.03727 12.2478 6.66487 12.2716 7.38428C12.2793 7.61009 12.2068 7.81611 12.0675 7.96443C11.9394 8.10082 11.762 8.17879 11.5681 8.18452C11.1527 8.19692 10.8367 7.87906 10.8181 7.42982C10.8028 7.06117 10.6502 6.72567 10.3886 6.48508C10.1306 6.24806 9.79027 6.12573 9.43017 6.14123C9.08771 6.15602 8.76934 6.30576 8.53373 6.56329C8.2912 6.82845 8.16671 7.17253 8.1834 7.53235C8.21512 8.21361 8.78485 8.75918 9.48096 8.77444C10.53 8.79757 11.333 9.24777 11.8679 10.1126C12.3162 10.8378 12.3999 11.715 12.0975 12.5198C11.7916 13.3339 11.1415 13.9467 10.3135 14.2011C10.2856 14.2097 10.2574 14.218 10.2279 14.2264C10.2281 14.26 10.2281 14.2931 10.2283 14.3258C10.2291 14.4753 10.2298 14.6167 10.2267 14.76C10.2169 15.1721 9.8983 15.4921 9.49909 15.4921ZM7.45343 11.1084C7.44866 11.1084 7.44412 11.1084 7.43936 11.1086C7.31845 11.112 7.21399 11.1573 7.1372 11.2393C7.05159 11.3309 7.00795 11.463 7.01391 11.6111C7.04754 12.4421 7.3981 13.098 8.05582 13.5611C8.23539 13.6875 8.4412 13.7845 8.65941 13.8873C8.76386 13.9364 8.87165 13.9872 8.9804 14.0433L9.05814 14.0831V14.1703C9.05814 14.2192 9.0579 14.2722 9.05742 14.328C9.05647 14.4603 9.05576 14.61 9.05886 14.7584C9.06458 15.0106 9.25155 15.2031 9.49408 15.2057C9.49575 15.2057 9.49742 15.2057 9.49909 15.2057C9.74496 15.2057 9.93407 15.0123 9.93979 14.7538C9.94289 14.6143 9.94218 14.4748 9.94122 14.3272C9.94098 14.259 9.94051 14.1897 9.94051 14.1186V14.0111L10.0438 13.981C10.0676 13.9741 10.0903 13.9677 10.1117 13.9615C10.1532 13.9495 10.1909 13.9388 10.2286 13.9274C10.971 13.6992 11.5543 13.1493 11.8288 12.4189C12.0997 11.6978 12.0248 10.9119 11.6234 10.2629C11.1429 9.48574 10.4196 9.08109 9.47381 9.06034C8.62793 9.04175 7.93515 8.37623 7.89675 7.54547C7.87648 7.1091 8.02744 6.69181 8.32172 6.37014C8.60909 6.0561 8.99804 5.87321 9.41705 5.85533C9.85322 5.83673 10.267 5.98528 10.5815 6.27429C10.8994 6.56663 11.0847 6.97271 11.1033 7.4179C11.1155 7.71286 11.2994 7.90577 11.5593 7.89838C11.6783 7.89504 11.7818 7.84997 11.8583 7.76842C11.9451 7.67614 11.99 7.54308 11.985 7.39381C11.9635 6.74761 11.7236 6.18368 11.2726 5.71774C10.9471 5.38153 10.5467 5.15595 10.0483 5.02767L9.94075 5.00001V4.88913C9.94075 4.82212 9.94098 4.75559 9.94122 4.68978C9.94194 4.54337 9.94241 4.40507 9.94003 4.26462C9.93574 3.99851 9.75211 3.80346 9.50338 3.80108C9.50195 3.80108 9.50028 3.80108 9.49885 3.80108C9.24678 3.80108 9.06172 3.99756 9.0579 4.27011C9.05599 4.41127 9.05647 4.55506 9.05695 4.69431C9.05719 4.75822 9.05742 4.82212 9.05742 4.88579V4.98761L8.96108 5.02099C8.94415 5.02695 8.92865 5.03244 8.9141 5.03792C8.88238 5.04937 8.85233 5.06033 8.82014 5.0694C8.11329 5.26707 7.53308 5.76639 7.22854 6.43906C6.92877 7.101 6.93521 7.85188 7.24595 8.49879C7.69262 9.42899 8.45932 9.91567 9.5246 9.94571C10.3795 9.9698 11.0723 10.6441 11.1019 11.4809C11.1331 12.3634 10.4508 13.1131 9.58136 13.1519C9.14638 13.1712 8.73333 13.0229 8.41831 12.7339C8.09898 12.4411 7.91321 12.0345 7.89461 11.5894C7.88316 11.2999 7.70645 11.1084 7.45343 11.1084Z" fill="#C4C4C4"/>
</g>
<defs>
<clipPath id="clip0">
<rect width="19" height="19" fill="white"/>
</clipPath>
</defs>
</svg>
