<?xml version="1.0" encoding="utf-8"?>
<!-- Generator: Adobe Illustrator 25.0.1, SVG Export Plug-In . SVG Version: 6.00 Build 0)  -->
<svg version="1.1" id="Layer_1" xmlns="http://www.w3.org/2000/svg" xmlns:xlink="http://www.w3.org/1999/xlink" x="0px" y="0px"
	 viewBox="0 0 430 430" style="enable-background:new 0 0 430 430;" xml:space="preserve">
<style type="text/css">
	.st0{fill:#398CBF;}
	.st1{fill:#398CBF;}
</style>
<g>
	<path class="st0" d="M351.7,302.8c-11.1,0-24.3-0.8-38.3-3.2c-50.8-8.8-87.5-35.5-106-77.2c0-0.1-0.1-0.2-0.1-0.2
		c-16.6-42.2-48.3-68.4-94.2-77.9c-34.8-7.2-65.1-1.6-65.4-1.5c-3.2,0.6-6.4-1.5-7-4.8c-0.6-3.3,1.5-6.4,4.8-7
		c1.3-0.3,32.6-6.1,69.7,1.5c49.6,10.1,85.3,39.6,103.3,85.2c17.1,38.3,49.7,61.9,97,70.1c35.8,6.2,66.7,0.9,67,0.8
		c3.3-0.6,6.4,1.6,7,4.9c0.6,3.3-1.6,6.4-4.9,7C383.7,300.6,370.6,302.8,351.7,302.8z"/>
	<g>
		<path class="st0" d="M383.5,300.5c-1.5,0-3.1-0.6-4.2-1.8l-32.5-32.5c-2.3-2.3-2.3-6.1,0-8.5c2.3-2.3,6.1-2.3,8.5,0l32.5,32.5
			c2.3,2.3,2.3,6.1,0,8.5C386.6,300,385,300.5,383.5,300.5z"/>
		<path class="st0" d="M351.3,332.8c-1.5,0-3.1-0.6-4.2-1.8c-2.3-2.3-2.3-6.1,0-8.5l32.2-32.2c2.3-2.3,6.1-2.3,8.5,0
			c2.3,2.3,2.3,6.1,0,8.5L355.5,331C354.3,332.2,352.8,332.8,351.3,332.8z"/>
	</g>
</g>
<g>
	<path class="st1" d="M228.8,189.4c-1.3,0-2.6-0.4-3.7-1.3c-2.6-2.1-3-5.8-1-8.4c22.4-28.3,57.3-45.9,101-51
		c32.6-3.8,58.3,0.7,59.4,0.9c3.3,0.6,5.4,3.7,4.9,7c-0.6,3.3-3.7,5.4-7,4.9c-0.2,0-25.3-4.4-56.3-0.7c-40.8,4.8-72,20.4-92.6,46.5
		C232.3,188.6,230.6,189.4,228.8,189.4z"/>
	<path class="st1" d="M75.7,301.4c-17.7,0-29.6-2.2-30.3-2.4c-3.3-0.6-5.4-3.8-4.8-7c0.6-3.3,3.8-5.4,7-4.8l0,0
		c0.2,0,22.8,4.2,51.3,0.8c37.6-4.6,67.1-19.6,87.8-44.8c2.1-2.6,5.9-2.9,8.4-0.8c2.6,2.1,2.9,5.9,0.8,8.4
		c-22.4,27.3-55.6,44.3-96,49.1C91.2,301,82.9,301.4,75.7,301.4z"/>
	<g>
		<path class="st1" d="M351,173.9c-1.5,0-3.1-0.6-4.2-1.8c-2.3-2.3-2.3-6.1,0-8.5l32.5-32.5c2.3-2.3,6.1-2.3,8.5,0
			c2.3,2.3,2.3,6.1,0,8.5l-32.5,32.5C354.1,173.4,352.5,173.9,351,173.9z"/>
		<path class="st1" d="M383.5,141.5c-1.5,0-3.1-0.6-4.2-1.8L347,107.5c-2.3-2.3-2.3-6.1,0-8.5c2.3-2.3,6.1-2.3,8.5,0l32.2,32.2
			c2.3,2.3,2.3,6.1,0,8.5C386.6,140.9,385,141.5,383.5,141.5z"/>
	</g>
</g>
</svg>
