<svg width="44" height="153" viewBox="0 0 44 153" fill="none" xmlns="http://www.w3.org/2000/svg">
<circle cx="22" cy="4" r="3.5" stroke="#03DAC5"/>
<circle cx="22.5" cy="16" r="2" fill="#C4C4C4"/>
<circle cx="22.5" cy="27" r="2" fill="#C4C4C4"/>
<circle cx="22.5" cy="38" r="2" fill="#C4C4C4"/>
<circle cx="22.5" cy="49" r="2" fill="#C4C4C4"/>
<circle cx="22.5" cy="102" r="2" fill="#C4C4C4"/>
<circle cx="22.5" cy="113" r="2" fill="#C4C4C4"/>
<circle cx="22.5" cy="124" r="2" fill="#C4C4C4"/>
<circle cx="22.5" cy="135" r="2" fill="#C4C4C4"/>
<circle cx="22.5" cy="149" r="3.5" stroke="#E46E2B"/>
<path d="M39.1673 85.026C37.7733 85.026 36.1157 84.9256 34.3575 84.6242C27.978 83.5191 23.3691 80.166 21.0459 74.9293C21.0459 74.9167 21.0333 74.9042 21.0333 74.9042C18.9487 69.6046 14.9677 66.3144 9.20356 65.1214C4.83332 64.2172 1.02821 64.9204 0.990532 64.933C0.588671 65.0084 0.186811 64.7446 0.111462 64.3302C0.0361133 63.9158 0.299834 63.5265 0.714253 63.4511C0.877509 63.4135 4.80821 62.6851 9.46728 63.6395C15.6961 64.9079 20.1794 68.6125 22.4398 74.3391C24.5873 79.1488 28.6812 82.1125 34.6212 83.1423C39.1171 83.9209 42.9975 83.2553 43.0352 83.2428C43.4496 83.1674 43.8389 83.4437 43.9143 83.8581C43.9896 84.2725 43.7133 84.6618 43.2989 84.7372C43.1859 84.7497 41.5408 85.026 39.1673 85.026Z" fill="#398CBF"/>
<path d="M43.1604 84.7375C42.9721 84.7375 42.7711 84.6621 42.633 84.5114L38.5516 80.4301C38.2628 80.1412 38.2628 79.664 38.5516 79.3626C38.8404 79.0738 39.3176 79.0738 39.619 79.3626L43.7004 83.444C43.9893 83.7328 43.9893 84.2101 43.7004 84.5114C43.5497 84.6747 43.3488 84.7375 43.1604 84.7375Z" fill="#398CBF"/>
<path d="M39.1171 88.7936C38.9287 88.7936 38.7278 88.7183 38.5897 88.5676C38.3008 88.2787 38.3008 87.8015 38.5897 87.5001L42.6334 83.4564C42.9222 83.1675 43.3994 83.1675 43.7008 83.4564C43.9897 83.7452 43.9897 84.2224 43.7008 84.5238L39.6446 88.5676C39.4939 88.7183 39.3055 88.7936 39.1171 88.7936Z" fill="#398CBF"/>
<path d="M23.7334 70.7853C23.5702 70.7853 23.4069 70.7351 23.2688 70.622C22.9423 70.3583 22.8921 69.8937 23.1432 69.5672C25.9562 66.0132 30.339 63.803 35.8269 63.1625C39.9209 62.6853 43.1483 63.2504 43.2865 63.2755C43.7009 63.3509 43.9646 63.7402 43.9018 64.1546C43.8265 64.569 43.4372 64.8327 43.0227 64.7699C42.9976 64.7699 39.8455 64.2174 35.9525 64.682C30.8288 65.2848 26.9107 67.2439 24.3237 70.5216C24.173 70.6848 23.9595 70.7853 23.7334 70.7853Z" fill="#398CBF"/>
<path d="M4.50667 84.85C2.28388 84.85 0.789465 84.5738 0.701558 84.5486C0.287139 84.4733 0.0234179 84.0714 0.0987668 83.6696C0.174116 83.2552 0.575976 82.9914 0.977837 83.0668C1.00295 83.0668 3.84109 83.5942 7.42016 83.1672C12.142 82.5896 15.8467 80.7059 18.4462 77.5412C18.7099 77.2147 19.1871 77.177 19.5011 77.4407C19.8276 77.7045 19.8653 78.1817 19.6016 78.4956C16.7885 81.924 12.6192 84.0589 7.54574 84.6617C6.45319 84.7998 5.41086 84.85 4.50667 84.85Z" fill="#398CBF"/>
<path d="M39.079 68.8386C38.8907 68.8386 38.6897 68.7632 38.5516 68.6125C38.2628 68.3237 38.2628 67.8465 38.5516 67.5451L42.633 63.4637C42.9218 63.1749 43.399 63.1749 43.7004 63.4637C43.9893 63.7525 43.9893 64.2297 43.7004 64.5311L39.619 68.6125C39.4683 68.7758 39.2674 68.8386 39.079 68.8386Z" fill="#398CBF"/>
<path d="M43.1607 64.7697C42.9723 64.7697 42.7714 64.6943 42.6333 64.5436L38.577 60.4999C38.2881 60.2111 38.2881 59.7338 38.577 59.4324C38.8658 59.1436 39.343 59.1436 39.6444 59.4324L43.6881 63.4762C43.977 63.765 43.977 64.2422 43.6881 64.5436C43.55 64.6943 43.3491 64.7697 43.1607 64.7697Z" fill="#398CBF"/>
</svg>
