<svg width="45" height="40" viewBox="0 0 45 40" fill="none" xmlns="http://www.w3.org/2000/svg">
<path d="M1.14355 6.14307C1.14355 3.38165 3.38213 1.14307 6.14355 1.14307H38.4293C41.1907 1.14307 43.4293 3.38164 43.4293 6.14307V24.7145C43.4293 27.4759 41.1907 29.7145 38.4293 29.7145H6.14355C3.38212 29.7145 1.14355 27.4759 1.14355 24.7145V6.14307Z" fill="white" stroke="#398CBF" stroke-width="2"/>
<path d="M43.4283 19.4282H33.1426" stroke="#398CBF" stroke-width="2"/>
<path d="M1 6.55076C1 3.91217 3.50987 1.99645 6.05503 2.6924L30.3408 9.33311C32.0797 9.80862 33.2857 11.3886 33.2857 13.1915V33.4492C33.2857 36.0878 30.7758 38.0035 28.2307 37.3076L3.94496 30.6669C2.20599 30.1914 1 28.6114 1 26.8085V6.55076Z" fill="#D8E9F1" stroke="#398CBF" stroke-width="2"/>
<circle cx="26.0571" cy="22.6997" r="2.1714" fill="white" stroke="#398CBF" stroke-width="2"/>
</svg>
