<svg width="18" height="18" viewBox="0 0 18 18" fill="none" xmlns="http://www.w3.org/2000/svg">
<path d="M8.74413 16.8552C13.2234 16.8552 16.8545 13.2241 16.8545 8.74487C16.8545 4.26565 13.2234 0.634521 8.74413 0.634521C4.26491 0.634521 0.633789 4.26565 0.633789 8.74487C0.633789 13.2241 4.26491 16.8552 8.74413 16.8552Z" stroke="white" stroke-linecap="round" stroke-linejoin="round"/>
<path d="M8.22848 5.08329C8.22848 4.91688 8.22633 4.75318 8.22891 4.58948C8.23364 4.31587 8.4506 4.11309 8.73717 4.11038C9.02975 4.10767 9.25231 4.31394 9.25703 4.59451C9.25961 4.75357 9.25746 4.91262 9.25746 5.08174C9.30859 5.09683 9.35714 5.11231 9.40654 5.12547C10.3548 5.37934 11.0349 6.17617 11.0568 7.05891C11.0641 7.3627 10.8561 7.58058 10.5537 7.58561C10.2564 7.59064 10.042 7.38863 10.0282 7.09103C9.99815 6.43662 9.40912 5.94242 8.68647 5.96564C7.98359 5.9877 7.43108 6.53337 7.45815 7.17772C7.48435 7.79304 8.04503 8.26092 8.7608 8.28337C9.7408 8.31433 10.457 8.73306 10.8609 9.53569C11.4297 10.6665 10.7376 11.9993 9.41643 12.3619C9.36616 12.3759 9.31589 12.3898 9.25746 12.406C9.25746 12.5732 9.26004 12.7369 9.25703 12.9006C9.25188 13.1735 9.03362 13.377 8.74791 13.3793C8.45576 13.3817 8.23321 13.175 8.22934 12.8944C8.22719 12.7354 8.22891 12.5763 8.22891 12.4285C7.99691 12.3337 7.76104 12.2632 7.55524 12.1491C6.8472 11.7571 6.47127 11.1785 6.43046 10.43C6.4137 10.1251 6.62809 9.90876 6.93227 9.90411C7.23044 9.89947 7.44354 10.1007 7.45729 10.3987C7.48736 11.0523 8.07811 11.5481 8.79904 11.5245C9.50321 11.5012 10.0553 10.9556 10.0274 10.3116C10.0003 9.69513 9.44134 9.22184 8.72428 9.20829C7.74815 9.18971 6.91079 8.66069 6.57181 7.848C6.10178 6.72067 6.8167 5.4459 8.10088 5.1216C8.1417 5.11154 8.18122 5.09761 8.22848 5.08329Z" fill="white"/>
</svg>
